<svg xmlns="http://www.w3.org/2000/svg" width="64.232" height="50" viewBox="0 0 64.232 50"><path d="M0,291.562V279H8.443v2.556H2.928v2.378H8.145v2.431H2.928v2.609H8.766v2.591Z" transform="translate(0 -245.821)" fill="#fff"/><path d="M95.292,317.377V312.55a3.893,3.893,0,0,0-.062-.713,1.949,1.949,0,0,0-.2-.595,1.05,1.05,0,0,0-.4-.408,1.263,1.263,0,0,0-.648-.151,1.472,1.472,0,0,0-.684.151,1.382,1.382,0,0,0-.488.416,1.91,1.91,0,0,0-.293.612,2.626,2.626,0,0,0-.1.719v4.791H89.49v-8.834h2.822v1.225h.034a2.957,2.957,0,0,1,.417-.559,2.5,2.5,0,0,1,.6-.466,3.733,3.733,0,0,1,.754-.32,2.994,2.994,0,0,1,.869-.119,3.271,3.271,0,0,1,1.509.32,2.891,2.891,0,0,1,1,.825,3.251,3.251,0,0,1,.551,1.162,5.284,5.284,0,0,1,.168,1.308v5.47H95.292Z" transform="translate(-78.848 -271.636)" fill="#fff"/><path d="M177.327,311.071a1.782,1.782,0,0,0-.675-.517,2.074,2.074,0,0,0-.869-.2,1.827,1.827,0,0,0-.832.187,2.047,2.047,0,0,0-.64.5,2.344,2.344,0,0,0-.416.719,2.473,2.473,0,0,0-.151.869,2.616,2.616,0,0,0,.141.869,2.118,2.118,0,0,0,.417.714,1.975,1.975,0,0,0,.656.488,2.008,2.008,0,0,0,.861.177,2.417,2.417,0,0,0,.878-.168,1.685,1.685,0,0,0,.7-.489l1.616,1.97a3.807,3.807,0,0,1-1.42.832,5.6,5.6,0,0,1-1.847.308,5.854,5.854,0,0,1-1.955-.32,4.538,4.538,0,0,1-1.577-.932,4.392,4.392,0,0,1-1.057-1.477,4.839,4.839,0,0,1-.383-1.97,4.782,4.782,0,0,1,.383-1.951,4.386,4.386,0,0,1,1.054-1.482,4.638,4.638,0,0,1,1.577-.941,5.654,5.654,0,0,1,1.937-.329,5.087,5.087,0,0,1,.951.089,6.487,6.487,0,0,1,.9.238,4.043,4.043,0,0,1,.8.373,3.384,3.384,0,0,1,.63.487Z" transform="translate(-150.466 -271.31)" fill="#fff"/><path d="M255.122,310.871a2.235,2.235,0,0,0-.382-.071c-.119-.012-.245-.018-.363-.018a2.078,2.078,0,0,0-.986.213,2.022,2.022,0,0,0-.639.513,1.955,1.955,0,0,0-.346.655,2.216,2.216,0,0,0-.106.62v4.53H249.39v-8.826H252.2v1.278h.036a2.869,2.869,0,0,1,.958-1.108,2.462,2.462,0,0,1,1.438-.429,3.294,3.294,0,0,1,.346.018,1.338,1.338,0,0,1,.275.054Z" transform="translate(-219.734 -271.572)" fill="#fff"/><path d="M309.66,320.524a7.682,7.682,0,0,1-.594,1.233,3.743,3.743,0,0,1-.781.923,3.091,3.091,0,0,1-1.064.577,4.8,4.8,0,0,1-1.446.195,6.879,6.879,0,0,1-.843-.053,5.363,5.363,0,0,1-.754-.141l.319-2.448a3.375,3.375,0,0,0,.476.119,2.893,2.893,0,0,0,.47.044,1.316,1.316,0,0,0,.976-.31,2.543,2.543,0,0,0,.515-.879l.284-.727-3.686-8.7h3.228l1.97,5.678h.053l1.756-5.678h3.092Z" transform="translate(-267.436 -273.452)" fill="#fff"/><path d="M404.611,312.854a5.59,5.59,0,0,1-.284,1.775,4.59,4.59,0,0,1-.825,1.5,4.061,4.061,0,0,1-1.322,1.039,3.924,3.924,0,0,1-1.774.39,3.71,3.71,0,0,1-1.546-.328,2.763,2.763,0,0,1-1.137-.9h-.034v5.232H394.78V308.471h2.767v1.083h.054a3.585,3.585,0,0,1,1.127-.932,3.434,3.434,0,0,1,1.695-.4,3.986,3.986,0,0,1,1.739.373,3.931,3.931,0,0,1,1.322,1.011,4.592,4.592,0,0,1,.832,1.482A5.324,5.324,0,0,1,404.611,312.854Zm-2.822,0a2.657,2.657,0,0,0-.133-.832,2.167,2.167,0,0,0-.39-.719,2.086,2.086,0,0,0-2.44-.505,2.107,2.107,0,0,0-.666.515,2.409,2.409,0,0,0,0,3.123,2.124,2.124,0,0,0,.666.515,1.961,1.961,0,0,0,.887.194,2.006,2.006,0,0,0,.9-.194,1.939,1.939,0,0,0,.648-.515,2.243,2.243,0,0,0,.39-.737A2.732,2.732,0,0,0,401.789,312.854Z" transform="translate(-347.834 -271.568)" fill="#fff"/><path d="M484.988,295.26v3.385a1.546,1.546,0,0,0,.238.936,1.018,1.018,0,0,0,.861.31,2.924,2.924,0,0,0,.452-.036,1.517,1.517,0,0,0,.4-.106l.036,2.13a4.941,4.941,0,0,1-.763.186,5.382,5.382,0,0,1-.923.08,4.337,4.337,0,0,1-1.491-.222,2.3,2.3,0,0,1-.967-.641,2.512,2.512,0,0,1-.523-1,4.822,4.822,0,0,1-.159-1.29V295.26H480.73v-2.165h1.4V290.77h2.854v2.325h2.079v2.165Z" transform="translate(-423.564 -256.192)" fill="#fff"/><path d="M0,167.134V154.6H3.044v9.893H7.892v2.641Z" transform="translate(0 -136.214)" fill="#fff"/><path d="M82.694,188.246v.357a3.045,3.045,0,0,1-.018.337H76.288a1.546,1.546,0,0,0,.221.672,1.937,1.937,0,0,0,.476.522,2.358,2.358,0,0,0,1.407.47,2.444,2.444,0,0,0,1.169-.257,2.3,2.3,0,0,0,.778-.664l2.022,1.274a4.068,4.068,0,0,1-1.637,1.389,5.413,5.413,0,0,1-2.362.488,5.658,5.658,0,0,1-1.876-.31,4.55,4.55,0,0,1-1.546-.9,4.163,4.163,0,0,1-1.044-1.46,4.893,4.893,0,0,1-.381-1.982,4.948,4.948,0,0,1,.372-1.955,4.414,4.414,0,0,1,1.008-1.486,4.482,4.482,0,0,1,1.5-.951,5.155,5.155,0,0,1,1.875-.337,4.757,4.757,0,0,1,1.784.327,3.912,3.912,0,0,1,1.4.951,4.355,4.355,0,0,1,.914,1.5A5.767,5.767,0,0,1,82.694,188.246Zm-2.672-1.115a1.735,1.735,0,0,0-.434-1.189,1.64,1.64,0,0,0-1.3-.5,2.206,2.206,0,0,0-.779.133,2.022,2.022,0,0,0-.62.357,1.8,1.8,0,0,0-.425.551,1.591,1.591,0,0,0-.177.646Z" transform="translate(-64.771 -161.632)" fill="#fff"/><path d="M158.247,170.836v3.375a1.529,1.529,0,0,0,.238.933,1.019,1.019,0,0,0,.859.31,3.055,3.055,0,0,0,.451-.036,1.547,1.547,0,0,0,.4-.106l.036,2.123a4.777,4.777,0,0,1-.761.187,5.465,5.465,0,0,1-.92.08,4.335,4.335,0,0,1-1.486-.222,2.289,2.289,0,0,1-.964-.639,2.5,2.5,0,0,1-.522-.994,4.793,4.793,0,0,1-.159-1.285v-3.726H154v-2.158h1.4V166.36h2.854v2.318h2.07v2.158Z" transform="translate(-135.687 -146.576)" fill="#fff"/><path d="M240.826,186.346a3.235,3.235,0,0,0-.832-.567,2.314,2.314,0,0,0-1.008-.23,1.783,1.783,0,0,0-.753.159.559.559,0,0,0-.345.548.548.548,0,0,0,.381.531,8.325,8.325,0,0,0,1.23.357,6.688,6.688,0,0,1,1,.3,3.531,3.531,0,0,1,.912.514,2.452,2.452,0,0,1,.654.779,2.28,2.28,0,0,1,.249,1.1,2.645,2.645,0,0,1-1.213,2.337,3.771,3.771,0,0,1-1.211.509,5.775,5.775,0,0,1-1.339.159,6.668,6.668,0,0,1-2.114-.344,4.448,4.448,0,0,1-1.726-1.018l1.628-1.717a3.239,3.239,0,0,0,.951.708,2.654,2.654,0,0,0,1.2.284,1.582,1.582,0,0,0,.7-.169.6.6,0,0,0,.345-.595.629.629,0,0,0-.425-.6,7.688,7.688,0,0,0-1.327-.408,6.618,6.618,0,0,1-.92-.283,2.893,2.893,0,0,1-.822-.476,2.347,2.347,0,0,1-.595-.743,2.269,2.269,0,0,1-.229-1.061,2.572,2.572,0,0,1,.337-1.354,2.825,2.825,0,0,1,.867-.911,3.833,3.833,0,0,1,1.176-.522,5.04,5.04,0,0,1,1.284-.169,6.219,6.219,0,0,1,1.938.309,4.189,4.189,0,0,1,1.6.93Z" transform="translate(-206.799 -161.643)" fill="#fff"/><path d="M217.933,152.58a1.478,1.478,0,0,0-1.553,1.427,1.344,1.344,0,0,0,1.427,1.412,1.051,1.051,0,0,0,.207-.02,1.619,1.619,0,0,1-1.308,1.163l-.119.019v1.347l.15-.014a3.185,3.185,0,0,0,1.872-.861,3.53,3.53,0,0,0,1-2.616A1.707,1.707,0,0,0,217.933,152.58Z" transform="translate(-190.649 -134.435)" fill="#fff"/><g transform="translate(42.948 8.323)"><path d="M374.26,78.459H370.5V76.53a2.795,2.795,0,1,0-5.589,0v1.929H361.16V76.53a6.55,6.55,0,1,1,13.1,0Z" transform="translate(-361.16 -69.98)" fill="#f9a11d"/></g><path d="M355.272,141.28h-16.13a1.256,1.256,0,0,0-1.252,1.252v11.932a1.254,1.254,0,0,0,1.252,1.251h16.13a1.255,1.255,0,0,0,1.252-1.251V142.532A1.256,1.256,0,0,0,355.272,141.28Zm-7.248,7.834v1.617a.817.817,0,1,1-1.634,0v-1.617a1.665,1.665,0,1,1,1.634,0Z" transform="translate(-297.71 -124.478)" fill="#fff"/><path d="M297.365,109.386h-3.892a1.143,1.143,0,1,1,0-2.286h3.892a1.143,1.143,0,1,1,0,2.286Z" transform="translate(-257.567 -94.363)" fill="#f9a11d"/><path d="M326.462,39.126a1.139,1.139,0,0,1-.725-.26l-3.079-2.532a1.145,1.145,0,0,1,1.458-1.766l3.073,2.532a1.143,1.143,0,0,1-.727,2.022Z" transform="translate(-283.922 -30.226)" fill="#f9a11d"/><path d="M407.773,6.2a1.143,1.143,0,0,1-1.143-1.143V1.133a1.143,1.143,0,1,1,2.286,0V5.057A1.143,1.143,0,0,1,407.773,6.2Z" transform="translate(-358.276 0.01)" fill="#f9a11d"/><g transform="translate(55.316 4.087)"><path d="M466.312,39.176a1.143,1.143,0,0,1-.726-2.022l3.079-2.532a1.143,1.143,0,0,1,1.452,1.766l-3.079,2.527A1.139,1.139,0,0,1,466.312,39.176Z" transform="translate(-465.173 -34.362)" fill="#f9a11d"/></g><path d="M493,109.386h-3.924a1.143,1.143,0,0,1,0-2.286H493a1.143,1.143,0,0,1,0,2.286Z" transform="translate(-429.908 -94.363)" fill="#f9a11d"/></svg>