<svg xmlns="http://www.w3.org/2000/svg" width="43" height="30" viewBox="0 0 43 30" fill="none">
<path d="M40.1819 0H2.90918C1.80461 0 0.90918 0.89543 0.90918 2V28C0.90918 29.1046 1.80461 30 2.90918 30H40.1819C41.2864 30 42.1819 29.1046 42.1819 28V2C42.1819 0.89543 41.2864 0 40.1819 0Z" fill="#3D3D3D"/>
<path fill-rule="evenodd" clip-rule="evenodd" d="M25.6092 6.69992C25.8755 6.43336 26.3072 6.43336 26.5735 6.69992L28.8462 8.97521C28.974 9.10321 29.0459 9.27683 29.0459 9.45787C29.0459 9.6389 28.974 9.81252 28.8462 9.94053L26.5735 12.2158C26.3072 12.4824 25.8755 12.4824 25.6092 12.2158C25.343 11.9492 25.343 11.5171 25.6092 11.2505L26.718 10.1404H14.7277C14.3511 10.1404 14.0459 9.83485 14.0459 9.45787C14.0459 9.08088 14.3511 8.77528 14.7277 8.77528H26.718L25.6092 7.66524C25.343 7.39868 25.343 6.96649 25.6092 6.69992ZM17.4825 14.2842C17.7488 14.5508 17.7488 14.9829 17.4825 15.2495L16.3738 16.3596H28.3641C28.7406 16.3596 29.0459 16.6652 29.0459 17.0421C29.0459 17.4191 28.7406 17.7247 28.3641 17.7247H16.3738L17.4825 18.8348C17.7488 19.1013 17.7488 19.5335 17.4825 19.8001C17.2163 20.0666 16.7846 20.0666 16.5183 19.8001L14.2456 17.5248C14.1177 17.3968 14.0459 17.2232 14.0459 17.0421C14.0459 16.8611 14.1177 16.6875 14.2456 16.5595L16.5183 14.2842C16.7846 14.0176 17.2163 14.0176 17.4825 14.2842Z" fill="white"/>
<path d="M11.5493 21.666H10.8842V23.5H10.5166V21.666H9.85742V21.3672H11.5493V21.666ZM12.6142 22.6782H12.2011V23.5H11.8305V21.3672H12.5805C12.8266 21.3672 13.0166 21.4224 13.1504 21.5327C13.2842 21.6431 13.351 21.8027 13.351 22.0117C13.351 22.1543 13.3164 22.2739 13.247 22.3706C13.1787 22.4663 13.083 22.54 12.9599 22.5918L13.4389 23.481V23.5H13.042L12.6142 22.6782ZM12.2011 22.3809H12.582C12.707 22.3809 12.8047 22.3496 12.875 22.2871C12.9453 22.2236 12.9804 22.1372 12.9804 22.0278C12.9804 21.9136 12.9477 21.8252 12.8823 21.7627C12.8178 21.7002 12.7212 21.668 12.5923 21.666H12.2011V22.3809ZM14.8965 23.0034H14.0703L13.8974 23.5H13.5122L14.3178 21.3672H14.6504L15.4575 23.5H15.0708L14.8965 23.0034ZM14.1743 22.7046H14.7925L14.4834 21.8198L14.1743 22.7046ZM17.3926 23.5H17.0219L16.0713 21.9868V23.5H15.7007V21.3672H16.0713L17.0249 22.8862V21.3672H17.3926V23.5ZM18.9453 22.9507C18.9453 22.8569 18.9121 22.7847 18.8457 22.7339C18.7802 22.6831 18.6616 22.6318 18.4897 22.5801C18.3178 22.5283 18.1811 22.4707 18.0796 22.4072C17.8852 22.2852 17.7881 22.126 17.7881 21.9297C17.7881 21.7578 17.8579 21.6162 17.9975 21.5049C18.1382 21.3936 18.3203 21.3379 18.5439 21.3379C18.6924 21.3379 18.8247 21.3652 18.9409 21.4199C19.0571 21.4746 19.1484 21.5527 19.2148 21.6543C19.2812 21.7549 19.3144 21.8667 19.3144 21.9897H18.9453C18.9453 21.8784 18.9101 21.7915 18.8398 21.729C18.7705 21.6655 18.6709 21.6338 18.541 21.6338C18.4199 21.6338 18.3257 21.6597 18.2583 21.7114C18.1919 21.7632 18.1587 21.8354 18.1587 21.9282C18.1587 22.0063 18.1948 22.0718 18.2671 22.1245C18.3393 22.1763 18.4585 22.2271 18.6245 22.2769C18.7905 22.3257 18.9238 22.3818 19.0244 22.4453C19.125 22.5078 19.1987 22.5801 19.2456 22.6621C19.2925 22.7432 19.3159 22.8384 19.3159 22.9478C19.3159 23.1255 19.2475 23.2671 19.1108 23.3726C18.9751 23.4771 18.7905 23.5293 18.5571 23.5293C18.4028 23.5293 18.2607 23.501 18.1308 23.4443C18.0019 23.3867 17.9013 23.3076 17.8291 23.207C17.7578 23.1064 17.7221 22.9893 17.7221 22.8555H18.0927C18.0927 22.9766 18.1328 23.0703 18.2129 23.1367C18.2929 23.2031 18.4077 23.2363 18.5571 23.2363C18.686 23.2363 18.7827 23.2104 18.8471 23.1587C18.9126 23.106 18.9453 23.0366 18.9453 22.9507ZM20.8701 22.5962H20.0117V23.5H19.6411V21.3672H20.9961V21.666H20.0117V22.3003H20.8701V22.5962ZM22.5371 22.5479H21.6611V23.2041H22.685V23.5H21.2905V21.3672H22.6748V21.666H21.6611V22.2549H22.5371V22.5479ZM23.7705 22.6782H23.3574V23.5H22.9868V21.3672H23.7368C23.9829 21.3672 24.1728 21.4224 24.3066 21.5327C24.4404 21.6431 24.5073 21.8027 24.5073 22.0117C24.5073 22.1543 24.4726 22.2739 24.4033 22.3706C24.3349 22.4663 24.2392 22.54 24.1162 22.5918L24.5952 23.481V23.5H24.1982L23.7705 22.6782ZM23.3574 22.3809H23.7383C23.8633 22.3809 23.9609 22.3496 24.0312 22.2871C24.1015 22.2236 24.1367 22.1372 24.1367 22.0278C24.1367 21.9136 24.104 21.8252 24.0385 21.7627C23.9741 21.7002 23.8774 21.668 23.7485 21.666H23.3574V22.3809ZM26.1054 22.5479H25.2295V23.2041H26.2534V23.5H24.8589V21.3672H26.2431V21.666H25.2295V22.2549H26.1054V22.5479ZM26.0644 21.1914V21.2075H25.7788L25.5591 20.979L25.3408 21.2075H25.0581V21.1885L25.4551 20.7842H25.6645L26.0644 21.1914ZM28.247 23.5H27.8764L26.9258 21.9868V23.5H26.5551V21.3672H26.9258L27.8794 22.8862V21.3672H28.247V23.5ZM30.3125 22.8057C30.291 23.0332 30.207 23.2109 30.0605 23.3389C29.914 23.4658 29.7192 23.5293 29.476 23.5293C29.3061 23.5293 29.1562 23.4893 29.0263 23.4092C28.8974 23.3281 28.7978 23.2134 28.7275 23.0649C28.6572 22.9165 28.6206 22.7441 28.6176 22.5479V22.3486C28.6176 22.1475 28.6533 21.9702 28.7246 21.8169C28.7959 21.6636 28.8979 21.5454 29.0307 21.4624C29.1645 21.3794 29.3188 21.3379 29.4936 21.3379C29.729 21.3379 29.9184 21.4019 30.062 21.5298C30.2055 21.6577 30.289 21.8384 30.3125 22.0718H29.9433C29.9258 21.9185 29.8808 21.8081 29.8086 21.7407C29.7373 21.6724 29.6323 21.6382 29.4936 21.6382C29.3325 21.6382 29.2085 21.6973 29.1216 21.8154C29.0356 21.9326 28.9917 22.105 28.9897 22.3325V22.5215C28.9897 22.752 29.0307 22.9277 29.1128 23.0488C29.1958 23.1699 29.3169 23.2305 29.476 23.2305C29.6216 23.2305 29.7309 23.1978 29.8042 23.1323C29.8774 23.0669 29.9238 22.958 29.9433 22.8057H30.3125ZM31.0361 23.5H30.667V21.3672H31.0361V23.5ZM32.7119 23.0034H31.8857L31.7129 23.5H31.3276L32.1333 21.3672H32.4658L33.2729 23.5H32.8862L32.7119 23.0034ZM31.9897 22.7046H32.6079L32.2988 21.8198L31.9897 22.7046Z" fill="white"/>
</svg>