<svg xmlns="http://www.w3.org/2000/svg" width="42" height="30" viewBox="0 0 42 30" fill="none">
<path d="M39.7278 0H2.45508C1.35051 0 0.455078 0.89543 0.455078 2V28C0.455078 29.1046 1.35051 30 2.45508 30H39.7278C40.8323 30 41.7278 29.1046 41.7278 28V2C41.7278 0.89543 40.8323 0 39.7278 0Z" fill="#3D3D3D"/>
<path d="M19.1631 19.5438V13.0685C19.1631 11.877 20.1289 10.9111 21.3204 10.9111L23.2323 10.914C24.4203 10.9164 25.3821 11.8801 25.3821 13.0681V14.4464C25.3821 15.6379 24.4162 16.6038 23.2248 16.6038H20.5231" stroke="white" stroke-width="0.5" stroke-miterlimit="10" stroke-linecap="round" stroke-linejoin="round"/>
<path d="M25.917 10.9092H26.7464C27.2353 10.9092 27.6317 11.3056 27.6317 11.7945V16.6316" stroke="white" stroke-width="0.5" stroke-miterlimit="10" stroke-linecap="round" stroke-linejoin="round"/>
<path d="M27.454 10.1601L27.0779 9.78394C26.9845 9.69063 26.9845 9.53931 27.0779 9.446L27.4537 9.07009C27.5472 8.97664 27.6987 8.97664 27.7921 9.07009L28.168 9.446C28.2614 9.53931 28.2614 9.69063 28.168 9.78394L27.7919 10.1601C27.6986 10.2534 27.5473 10.2534 27.454 10.1601Z" fill="white"/>
<path d="M29.2227 10.9053H30.0451C30.4683 10.9053 30.874 11.0734 31.1732 11.3725L33.0969 13.2963C33.3461 13.5455 33.7501 13.5455 33.9994 13.2963L35.9161 11.3796C36.2153 11.0804 36.621 10.9123 37.0441 10.9123H37.7128" stroke="white" stroke-width="0.5" stroke-miterlimit="10" stroke-linecap="round" stroke-linejoin="round"/>
<path d="M29.2227 16.5906H30.0451C30.4683 16.5906 30.874 16.4225 31.1732 16.1234L33.0969 14.1996C33.3461 13.9504 33.7501 13.9504 33.9994 14.1996L35.9161 16.1163C36.2153 16.4155 36.621 16.5836 37.0441 16.5836H37.7128" stroke="white" stroke-width="0.5" stroke-miterlimit="10" stroke-linecap="round" stroke-linejoin="round"/>
<path d="M14.26 17.8179C13.8472 17.8179 13.4589 17.6572 13.167 17.3654L11.589 15.7873C11.4782 15.6762 11.2851 15.6765 11.1743 15.7873L9.59044 17.3712C9.29853 17.6629 8.91029 17.8237 8.49751 17.8237H8.18652L10.1852 19.8223C10.8094 20.4465 11.8214 20.4465 12.4457 19.8223L14.45 17.8179H14.26Z" fill="white"/>
<path d="M8.49742 12.2373C8.9102 12.2373 9.29844 12.398 9.59035 12.6898L11.1742 14.2739C11.2883 14.388 11.4745 14.3884 11.5889 14.2737L13.167 12.6955C13.4589 12.4038 13.8471 12.243 14.2599 12.243H14.45L12.4456 10.2387C11.8214 9.61445 10.8093 9.61445 10.1852 10.2387L8.18652 12.2373H8.49742Z" fill="white"/>
<path d="M16.1078 13.8997L14.8966 12.6884C14.8699 12.6991 14.841 12.7058 14.8105 12.7058H14.2598C13.9751 12.7058 13.6964 12.8212 13.4952 13.0226L11.9172 14.6006C11.7695 14.7483 11.5755 14.8222 11.3816 14.8222C11.1875 14.8222 10.9936 14.7483 10.846 14.6008L9.26205 13.0168C9.06086 12.8154 8.78215 12.7 8.49743 12.7H7.82027C7.79138 12.7 7.76439 12.6932 7.73891 12.6836L6.52285 13.8997C5.89863 14.5239 5.89863 15.5359 6.52285 16.1601L7.73886 17.3761C7.76439 17.3665 7.79138 17.3597 7.82027 17.3597H8.49743C8.78215 17.3597 9.06086 17.2443 9.26205 17.0429L10.8459 15.4591C11.1321 15.1731 11.6312 15.173 11.9172 15.4592L13.4952 17.0372C13.6964 17.2385 13.9751 17.354 14.2598 17.354H14.8105C14.841 17.354 14.8699 17.3606 14.8966 17.3713L16.1078 16.1601C16.732 15.5359 16.732 14.5239 16.1078 13.8997Z" fill="white"/>
<path d="M20.8074 18.9921C20.718 18.9921 20.614 19.0136 20.5111 19.0373V19.4319C20.5823 19.4579 20.6637 19.4704 20.7418 19.4704C20.9397 19.4704 21.0335 19.4037 21.0335 19.2294C21.0335 19.0656 20.9566 18.9921 20.8074 18.9921ZM20.4443 19.7249V18.9445H20.4986L20.5043 18.9785C20.5959 18.957 20.7225 18.9287 20.813 18.9287C20.8866 18.9287 20.9566 18.9399 21.0154 18.9875C21.0833 19.043 21.1048 19.1322 21.1048 19.2294C21.1048 19.3314 21.0708 19.4274 20.9781 19.4805C20.9137 19.5167 20.8266 19.5314 20.7485 19.5314C20.6682 19.5314 20.5914 19.5189 20.5111 19.4953V19.7249H20.4443Z" fill="white"/>
<path d="M21.6016 18.9897C21.4036 18.9897 21.3154 19.052 21.3154 19.2261C21.3154 19.3946 21.4025 19.4704 21.6016 19.4704C21.7983 19.4704 21.8865 19.4093 21.8865 19.2352C21.8865 19.0667 21.7995 18.9897 21.6016 18.9897ZM21.856 19.4704C21.7904 19.5179 21.7022 19.5315 21.6016 19.5315C21.4987 19.5315 21.4104 19.5168 21.346 19.4704C21.2736 19.4196 21.2441 19.3358 21.2441 19.2307C21.2441 19.1266 21.2736 19.0419 21.346 18.9897C21.4104 18.9435 21.4987 18.9287 21.6016 18.9287C21.7033 18.9287 21.7904 18.9435 21.856 18.9897C21.9295 19.0419 21.9578 19.1266 21.9578 19.2295C21.9578 19.3347 21.9284 19.4196 21.856 19.4704Z" fill="white"/>
<path d="M22.793 19.5164L22.5725 19.0427H22.5679L22.3509 19.5164H22.2909L22.0557 18.9453H22.1292L22.3249 19.4248H22.3294L22.5419 18.9453H22.603L22.8213 19.4248H22.8259L23.017 18.9453H23.0882L22.853 19.5164H22.793Z" fill="white"/>
<path d="M23.5146 18.9886C23.3314 18.9886 23.2692 19.07 23.2579 19.1877H23.7714C23.7657 19.0577 23.6989 18.9886 23.5146 18.9886ZM23.5124 19.5314C23.4026 19.5314 23.3314 19.5156 23.2749 19.4681C23.2082 19.4104 23.1855 19.3268 23.1855 19.2307C23.1855 19.1391 23.2161 19.0418 23.2919 18.9864C23.3552 18.9423 23.4332 18.9287 23.5146 18.9287C23.5882 18.9287 23.673 18.9366 23.743 18.9842C23.8256 19.0395 23.8415 19.1368 23.8415 19.2476H23.2557C23.2579 19.3652 23.2964 19.4693 23.518 19.4693C23.6232 19.4693 23.7216 19.4523 23.8132 19.4365V19.4963C23.7182 19.5134 23.613 19.5314 23.5124 19.5314Z" fill="white"/>
<path d="M24.0332 19.5156V18.9445H24.0874L24.0931 18.9785C24.2141 18.948 24.2706 18.9287 24.377 18.9287H24.3849V18.9921H24.369C24.2797 18.9921 24.2255 19.0044 24.1 19.0373V19.5156H24.0332Z" fill="white"/>
<path d="M24.7726 18.9886C24.5894 18.9886 24.5272 19.07 24.5158 19.1877H25.0293C25.0237 19.0577 24.9569 18.9886 24.7726 18.9886ZM24.7703 19.5314C24.6606 19.5314 24.5894 19.5156 24.5328 19.4681C24.466 19.4104 24.4434 19.3268 24.4434 19.2307C24.4434 19.1391 24.474 19.0418 24.5498 18.9864C24.6131 18.9423 24.6912 18.9287 24.7726 18.9287C24.8461 18.9287 24.9309 18.9366 25.001 18.9842C25.0836 19.0395 25.0994 19.1368 25.0994 19.2476H24.5136C24.5158 19.3652 24.5543 19.4693 24.7759 19.4693C24.8811 19.4693 24.9795 19.4523 25.0711 19.4365V19.4963C24.9761 19.5134 24.8709 19.5314 24.7703 19.5314Z" fill="white"/>
<path d="M25.83 19.0287C25.7588 19.0026 25.6774 18.9901 25.5994 18.9901C25.4015 18.9901 25.3075 19.057 25.3075 19.2311C25.3075 19.3961 25.3845 19.4685 25.5337 19.4685C25.6231 19.4685 25.7271 19.447 25.83 19.4244V19.0287ZM25.8425 19.516L25.8369 19.4821C25.7452 19.5036 25.6186 19.5319 25.5281 19.5319C25.4547 19.5319 25.3845 19.5217 25.3257 19.4731C25.2578 19.4176 25.2363 19.3283 25.2363 19.2311C25.2363 19.1293 25.2703 19.0331 25.363 18.9811C25.4274 18.9438 25.5145 18.9291 25.5937 18.9291C25.6729 18.9291 25.7498 18.9427 25.83 18.9653V18.7041H25.8968V19.516H25.8425Z" fill="white"/>
<path d="M26.8748 18.9925C26.7855 18.9925 26.6814 19.014 26.5785 19.0377V19.4312C26.6509 19.4584 26.7312 19.4709 26.8092 19.4709C27.0071 19.4709 27.1009 19.4041 27.1009 19.2299C27.1009 19.066 27.0241 18.9925 26.8748 18.9925ZM27.0456 19.481C26.9811 19.5172 26.894 19.5319 26.816 19.5319C26.7312 19.5319 26.6464 19.5172 26.5604 19.4889L26.557 19.5161H26.5117V18.7041H26.5785V18.9766C26.6701 18.9563 26.7933 18.9292 26.8804 18.9292C26.954 18.9292 27.0241 18.9404 27.0828 18.9879C27.1508 19.0434 27.1722 19.1327 27.1722 19.2299C27.1722 19.3318 27.1382 19.4279 27.0456 19.481Z" fill="white"/>
<path d="M27.2606 19.7358V19.6737C27.2934 19.677 27.324 19.6793 27.3455 19.6793C27.428 19.6793 27.4777 19.6555 27.5241 19.5616L27.5456 19.5164L27.2471 18.9453H27.324L27.5796 19.4384H27.5841L27.8272 18.9453H27.903L27.5818 19.5866C27.523 19.7031 27.4597 19.7415 27.3432 19.7415C27.3171 19.7415 27.2889 19.7392 27.2606 19.7358Z" fill="white"/>
<path d="M28.8224 19.1911H28.6008V19.3914H28.8235C28.9762 19.3914 29.0339 19.3743 29.0339 19.2907C29.0339 19.2012 28.9548 19.1911 28.8224 19.1911ZM28.7817 18.8666H28.6008V19.0701H28.7828C28.9333 19.0701 28.9932 19.0521 28.9932 18.9672C28.9932 18.8768 28.9174 18.8666 28.7817 18.8666ZM29.1255 19.4626C29.044 19.5146 28.9456 19.5168 28.7659 19.5168H28.4277V18.7422H28.758C28.9129 18.7422 29.0079 18.7444 29.087 18.792C29.1436 18.8259 29.1662 18.8779 29.1662 18.9457C29.1662 19.0271 29.1323 19.0815 29.044 19.1177V19.1221C29.1436 19.1449 29.2081 19.1957 29.2081 19.3054C29.2081 19.38 29.1809 19.4286 29.1255 19.4626Z" fill="white"/>
<path d="M29.8851 19.2759C29.8183 19.2702 29.7505 19.2669 29.6792 19.2669C29.5628 19.2669 29.522 19.2906 29.522 19.3437C29.522 19.3935 29.5559 19.4207 29.6452 19.4207C29.7199 19.4207 29.8092 19.4037 29.8851 19.3867V19.2759ZM29.9189 19.5156L29.9144 19.4817C29.8171 19.5055 29.7041 19.5315 29.6045 19.5315C29.5434 19.5315 29.4779 19.5235 29.4315 19.4896C29.3886 19.4591 29.3682 19.4093 29.3682 19.3517C29.3682 19.2871 29.3965 19.2272 29.4643 19.1967C29.5242 19.1685 29.6045 19.1663 29.6781 19.1663C29.738 19.1663 29.8182 19.1696 29.885 19.1741V19.1639C29.885 19.0746 29.8262 19.0452 29.6656 19.0452C29.6034 19.0452 29.5276 19.0485 29.4552 19.0553V18.94C29.5355 18.9333 29.626 18.9287 29.7007 18.9287C29.8001 18.9287 29.9032 18.9367 29.9664 18.9818C30.032 19.0283 30.0445 19.0927 30.0445 19.1775V19.5156H29.9189Z" fill="white"/>
<path d="M30.7896 19.5156V19.2001C30.7896 19.0961 30.7365 19.0588 30.6414 19.0588C30.5714 19.0588 30.4832 19.0768 30.4085 19.095V19.5156H30.249V18.9445H30.3791L30.3848 18.9807C30.4854 18.9548 30.5974 18.9287 30.6901 18.9287C30.7602 18.9287 30.8315 18.9388 30.8857 18.9875C30.9309 19.0283 30.9479 19.0847 30.9479 19.1662V19.5156H30.7896Z" fill="white"/>
<path d="M31.3988 19.5314C31.3253 19.5314 31.2449 19.5213 31.1862 19.4715C31.1161 19.4149 31.0957 19.3257 31.0957 19.2294C31.0957 19.139 31.1251 19.0406 31.2122 18.9852C31.2835 18.9388 31.3716 18.9287 31.4632 18.9287C31.5288 18.9287 31.5933 18.9333 31.6645 18.9399V19.0621C31.6068 19.0565 31.5378 19.0519 31.4825 19.0519C31.3309 19.0519 31.2597 19.0995 31.2597 19.2307C31.2597 19.354 31.3128 19.4071 31.4372 19.4071C31.5096 19.4071 31.5945 19.3935 31.677 19.3776V19.4952C31.5876 19.5134 31.4904 19.5314 31.3988 19.5314Z" fill="white"/>
<path d="M32.1479 19.0485C31.9963 19.0485 31.9296 19.0961 31.9296 19.2261C31.9296 19.3562 31.9952 19.4116 32.1479 19.4116C32.2982 19.4116 32.3638 19.3652 32.3638 19.2351C32.3638 19.1051 32.2994 19.0485 32.1479 19.0485ZM32.4215 19.4715C32.3514 19.5189 32.2598 19.5314 32.1479 19.5314C32.0336 19.5314 31.942 19.5179 31.8731 19.4715C31.7939 19.4195 31.7656 19.3336 31.7656 19.2307C31.7656 19.1277 31.7939 19.0406 31.8731 18.9886C31.942 18.9423 32.0336 18.9287 32.1479 18.9287C32.261 18.9287 32.3514 18.9423 32.4215 18.9886C32.5007 19.0406 32.5278 19.1277 32.5278 19.2295C32.5278 19.3325 32.4996 19.4195 32.4215 19.4715Z" fill="white"/>
<path d="M33.4489 19.5319C33.3529 19.5319 33.2488 19.5161 33.1707 19.4516C33.078 19.3746 33.0498 19.2559 33.0498 19.1281C33.0498 19.0139 33.0859 18.8782 33.2069 18.7991C33.3008 18.7381 33.4173 18.7256 33.5349 18.7256C33.6209 18.7256 33.7091 18.7313 33.8052 18.7392V18.8782C33.7226 18.8714 33.6209 18.8658 33.5417 18.8658C33.3212 18.8658 33.2273 18.9495 33.2273 19.1281C33.2273 19.3103 33.3144 19.3917 33.4772 19.3917C33.5835 19.3917 33.7023 19.3702 33.8221 19.3452V19.4832C33.7023 19.507 33.5767 19.5319 33.4489 19.5319Z" fill="white"/>
<path d="M34.29 19.0305C34.1576 19.0305 34.1067 19.078 34.0966 19.1651H34.4811C34.4765 19.0724 34.4223 19.0305 34.29 19.0305ZM34.2662 19.5315C34.1723 19.5315 34.0875 19.5202 34.0242 19.4681C33.9564 19.4116 33.9326 19.3268 33.9326 19.2295C33.9326 19.1424 33.9609 19.0452 34.0401 18.9886C34.1101 18.9389 34.1995 18.9287 34.29 18.9287C34.3714 18.9287 34.4676 18.9377 34.5376 18.9864C34.6293 19.0509 34.6372 19.1504 34.6383 19.268H34.0955C34.0988 19.3551 34.1452 19.4116 34.3058 19.4116C34.4053 19.4116 34.5161 19.3969 34.61 19.3822V19.4942C34.5003 19.5123 34.3804 19.5315 34.2662 19.5315Z" fill="white"/>
<path d="M35.3481 19.5156V19.2001C35.3481 19.0961 35.295 19.0588 35.2 19.0588C35.1299 19.0588 35.0417 19.0768 34.967 19.095V19.5156H34.8076V18.9445H34.9376L34.9433 18.9807C35.0439 18.9548 35.1559 18.9287 35.2487 18.9287C35.3187 18.9287 35.39 18.9388 35.4443 18.9875C35.4895 19.0283 35.5065 19.0847 35.5065 19.1662V19.5156H35.3481Z" fill="white"/>
<path d="M35.9609 19.5315C35.884 19.5315 35.8139 19.51 35.7755 19.4501C35.7472 19.4093 35.7336 19.354 35.7336 19.2771V19.0632H35.6182V18.9445H35.7336L35.7506 18.7715H35.8919V18.9445H36.1169V19.0632H35.8919V19.2465C35.8919 19.2906 35.8953 19.3279 35.9077 19.3551C35.9247 19.3935 35.962 19.4082 36.0118 19.4082C36.0491 19.4082 36.0944 19.4025 36.126 19.397V19.5111C36.074 19.5214 36.014 19.5315 35.9609 19.5315Z" fill="white"/>
<path d="M36.2725 19.5156V18.9445H36.4025L36.4082 18.9807C36.5134 18.9513 36.5914 18.9287 36.691 18.9287C36.6954 18.9287 36.7022 18.9287 36.7112 18.9298V19.0655C36.6931 19.0645 36.6717 19.0645 36.6558 19.0645C36.5778 19.0645 36.519 19.0735 36.4319 19.0939V19.5156H36.2725Z" fill="white"/>
<path d="M37.2903 19.2759C37.2235 19.2702 37.1557 19.2669 37.0845 19.2669C36.968 19.2669 36.9272 19.2906 36.9272 19.3437C36.9272 19.3935 36.9612 19.4207 37.0505 19.4207C37.1252 19.4207 37.2145 19.4037 37.2903 19.3867V19.2759ZM37.3242 19.5156L37.3197 19.4817C37.2224 19.5055 37.1093 19.5315 37.0098 19.5315C36.9487 19.5315 36.8831 19.5235 36.8367 19.4896C36.7938 19.4591 36.7734 19.4093 36.7734 19.3517C36.7734 19.2871 36.8017 19.2272 36.8696 19.1967C36.9295 19.1685 37.0098 19.1663 37.0833 19.1663C37.1433 19.1663 37.2235 19.1696 37.2903 19.1741V19.1639C37.2903 19.0746 37.2314 19.0452 37.0708 19.0452C37.0087 19.0452 36.9329 19.0485 36.8605 19.0553V18.94C36.9408 18.9333 37.0313 18.9287 37.106 18.9287C37.2054 18.9287 37.3084 18.9367 37.3717 18.9818C37.4373 19.0283 37.4497 19.0927 37.4497 19.1775V19.5156H37.3242Z" fill="white"/>
<path d="M37.6553 18.7041H37.8147V19.516H37.6553V18.7041Z" fill="white"/>
</svg>