<svg xmlns="http://www.w3.org/2000/svg" width="42" height="30" viewBox="0 0 42 30" fill="none">
<path d="M38.8535 0H2.96416C1.47745 0 0.272461 1.185 0.272461 2.64706V27.3529C0.272461 28.815 1.47745 30 2.96416 30H38.8535C40.3402 30 41.5452 28.815 41.5452 27.3529V2.64706C41.5452 1.185 40.3402 0 38.8535 0Z" fill="#3D3D3D"/>
<path d="M24.4404 17.0889C24.2572 17.2646 24.0406 17.403 23.8029 17.4962C23.5652 17.5894 23.3112 17.6356 23.0553 17.6321C22.702 17.6273 22.3572 17.5254 22.0597 17.338L21.3408 18.4625C21.9647 18.8486 22.7025 19.017 23.4356 18.9406C24.1687 18.8643 24.8543 18.5476 25.3821 18.0415L24.4404 17.0889Z" fill="white"/>
<path d="M10.9311 12.0472C11.2562 11.9422 11.5964 11.8892 11.9385 11.8903C12.6697 11.8882 13.3791 12.1351 13.9463 12.589C14.5134 13.0429 14.9033 13.6758 15.0498 14.3803L17.2241 13.9443C17.0715 13.2087 16.7617 12.5134 16.3152 11.9044C15.8687 11.2955 15.2956 10.7868 14.6341 10.4121C13.9725 10.0374 13.2375 9.80525 12.4778 9.73103C11.7181 9.65681 10.9511 9.74222 10.2275 9.98159L10.9311 12.0472Z" fill="white"/>
<path d="M8.37223 18.9675L9.83817 17.3344C9.50261 17.0422 9.23394 16.6833 9.04994 16.2814C8.86593 15.8795 8.77078 15.4438 8.77078 15.003C8.77078 14.5623 8.86593 14.1265 9.04994 13.7246C9.23394 13.3227 9.50261 12.9638 9.83817 12.6716L8.36754 11.042C7.79729 11.5387 7.34074 12.1488 7.02807 12.8319C6.71539 13.515 6.55371 14.2556 6.55371 15.0047C6.55371 15.7539 6.71539 16.4945 7.02807 17.1776C7.34074 17.8607 7.79729 18.4708 8.36754 18.9675H8.37223Z" fill="white"/>
<path d="M15.0358 15.627C14.946 16.0585 14.7642 16.4664 14.5022 16.8237C14.2403 17.1811 13.9043 17.4797 13.5164 17.6999C13.1284 17.92 12.6974 18.0568 12.2518 18.101C11.8061 18.1453 11.356 18.0961 10.9311 17.9566L10.2275 20.0222C10.9492 20.2582 11.7135 20.3415 12.4703 20.2665C13.227 20.1916 13.9591 19.9601 14.6185 19.5873C15.2779 19.2145 15.8496 18.7088 16.2963 18.1034C16.7429 17.498 17.0543 16.8065 17.2101 16.0744L15.0358 15.627Z" fill="white"/>
<path d="M23.1376 12.4984C22.7054 12.4924 22.2763 12.5705 21.8748 12.728C21.4733 12.8855 21.1074 13.1195 20.7981 13.4164C20.4888 13.7133 20.2421 14.0673 20.0722 14.4582C19.9023 14.8491 19.8126 15.2691 19.8082 15.6942C19.7962 16.3374 19.9817 16.9693 20.3406 17.5072L26.2888 15.0022C26.1212 14.3015 25.7208 13.6757 25.1509 13.2239C24.581 12.7721 23.8742 12.52 23.1423 12.5076L23.1376 12.4984ZM21.1697 15.9525C21.1656 15.8757 21.1656 15.7987 21.1697 15.7218C21.1814 15.3372 21.3107 14.965 21.5409 14.6538C21.771 14.3427 22.0913 14.107 22.4598 13.9777C22.8284 13.8484 23.228 13.8314 23.6065 13.929C23.985 14.0266 24.3247 14.2342 24.5813 14.5247L21.1697 15.9525Z" fill="white"/>
<path d="M28.151 11.0459V17.2807L29.2522 17.7316L28.7315 18.9599L27.642 18.5158C27.4233 18.4217 27.2368 18.2676 27.1049 18.0718C26.9611 17.8432 26.8882 17.5783 26.895 17.3095V11.0459H28.151Z" fill="white"/>
<path d="M32.1191 13.9252C32.3163 13.8619 32.5226 13.8295 32.7301 13.8295C33.176 13.8326 33.6074 13.9863 33.9518 14.265C34.2962 14.5436 34.5327 14.9302 34.6217 15.36L35.9481 15.0924C35.8563 14.6418 35.6677 14.2158 35.395 13.8426C35.1223 13.4695 34.7717 13.1579 34.3667 12.9286C33.9618 12.6994 33.5117 12.5578 33.0467 12.5132C32.5816 12.4687 32.1122 12.5223 31.6699 12.6705L32.1191 13.9252Z" fill="white"/>
<path d="M30.5551 18.1488L31.4499 17.1547C31.2467 16.9754 31.0842 16.7559 30.9729 16.5107C30.8617 16.2655 30.8042 16 30.8042 15.7315C30.8042 15.463 30.8617 15.1975 30.9729 14.9523C31.0842 14.7071 31.2467 14.4877 31.4499 14.3083L30.5551 13.3096C30.2057 13.6126 29.9259 13.9853 29.7342 14.4029C29.5425 14.8205 29.4434 15.2734 29.4434 15.7315C29.4434 16.1897 29.5425 16.6426 29.7342 17.0601C29.9259 17.4777 30.2057 17.8504 30.5551 18.1535V18.1488Z" fill="white"/>
<path d="M34.6204 16.1143C34.5313 16.5444 34.2944 16.9313 33.9495 17.21C33.6046 17.4886 33.1727 17.6421 32.7264 17.6447C32.5185 17.6454 32.312 17.6119 32.1153 17.5455L31.6885 18.8084C32.0248 18.9176 32.3768 18.9733 32.731 18.9733C33.4885 18.9733 34.2227 18.7157 34.8092 18.2443C35.3957 17.7728 35.7984 17.1165 35.9491 16.3864L34.6204 16.1143Z" fill="white"/>
</svg>