<svg xmlns="http://www.w3.org/2000/svg" width="42" height="30" viewBox="0 0 42 30" fill="none">
<path d="M39.2727 0H2C0.89543 0 0 0.89543 0 2V28C0 29.1046 0.89543 30 2 30H39.2727C40.3773 30 41.2727 29.1046 41.2727 28V2C41.2727 0.89543 40.3773 0 39.2727 0Z" fill="#3D3D3D"/>
<path d="M11.2794 12.2495L11.3974 12.2499L11.4912 12.2179L11.5851 12.186L11.6681 12.1017L11.7512 12.0176L11.7948 11.9053L11.8386 11.7931L11.8401 11.6278L11.8417 11.4627L11.8028 11.3982L11.7639 11.3336L11.6963 11.2918L11.6286 11.2499H11.3363L11.2368 11.2944L11.1374 11.3389L11.0796 11.4008L11.0219 11.4627L10.9765 11.5696L10.9312 11.6765L10.9226 11.843L10.9141 12.0095L10.9562 12.0923L10.9985 12.1751L11.08 12.212L11.1614 12.249L11.2794 12.2495ZM30.0867 16.9925H30.5109V16.7328L30.5598 16.4107C30.5867 16.2336 30.6311 15.953 30.6585 15.7874C30.6858 15.6217 30.7198 15.4118 30.7341 15.3209C30.7485 15.23 30.7864 15.0333 30.8184 14.8836C30.8505 14.7339 30.8905 14.5722 30.9073 14.524C30.9242 14.4759 30.9381 14.4254 30.9383 14.4119C30.9385 14.3983 30.9746 14.311 31.0187 14.2178L31.0988 14.0484L31.2045 13.908L31.3102 13.7676L31.4258 13.6807C31.4893 13.6328 31.5916 13.5694 31.6531 13.5397L31.7647 13.4856L32.0076 13.4873L32.2506 13.489L32.3463 13.5197L32.4419 13.5504L32.458 13.5404L32.4741 13.5304L32.475 13.4684C32.4755 13.4343 32.4962 13.3074 32.5212 13.1863L32.5667 12.9663L32.5156 12.9463C32.4666 12.9281 32.4172 12.9113 32.3673 12.8957L32.2702 12.8651L32.0952 12.8656L31.9203 12.866L31.7777 12.9162L31.6351 12.9663L31.5281 13.0309L31.4211 13.0954L31.2819 13.2412L31.1427 13.3869L31.068 13.5C31.0269 13.5623 30.9907 13.6104 30.9875 13.6069C30.9843 13.6036 31.0068 13.4739 31.0372 13.319C31.0676 13.1639 31.093 13.0174 31.0934 12.9934L31.0943 12.9496H30.3751V12.962C30.3751 12.9688 30.3572 13.0935 30.3352 13.239C30.3133 13.3845 30.2693 13.6654 30.2375 13.8632C30.1993 14.0998 30.1605 14.3362 30.1214 14.5727C30.0873 14.777 30.0515 14.9811 30.014 15.1849C29.9871 15.3292 29.9391 15.5829 29.9075 15.7486C29.8759 15.9143 29.824 16.1811 29.7922 16.3414L29.6984 16.8127L29.6625 16.9925H30.0867ZM20.2355 16.9925H20.6504L20.6629 16.8169C20.6698 16.7204 20.6933 16.5257 20.7151 16.3844C20.737 16.2431 20.7817 15.9613 20.8145 15.7583C20.856 15.5072 20.9012 15.2567 20.9501 15.0069C20.9918 14.7968 21.039 14.588 21.0549 14.5429C21.0709 14.4977 21.0839 14.4488 21.0839 14.4342C21.0839 14.4195 21.1151 14.3397 21.1532 14.2568C21.1914 14.1739 21.2624 14.047 21.3111 13.9748L21.3998 13.8434L21.5183 13.7335L21.6369 13.6238L21.7831 13.554L21.9293 13.4841L22.1529 13.4853L22.3763 13.4865L22.4862 13.5193C22.5466 13.5373 22.6013 13.5521 22.6077 13.5521C22.614 13.5521 22.6193 13.5315 22.6193 13.5062C22.6193 13.481 22.6412 13.353 22.6679 13.2217C22.6946 13.0905 22.7165 12.9776 22.7165 12.9708C22.7165 12.9641 22.6531 12.9392 22.5755 12.9157C22.498 12.8921 22.3909 12.8675 22.3374 12.8608L22.2403 12.8488L22.1139 12.8712C22.0444 12.8835 21.9411 12.9106 21.8843 12.9315C21.8275 12.9523 21.7337 12.9996 21.6758 13.0366C21.6181 13.0737 21.5281 13.1458 21.4761 13.1968C21.4239 13.2479 21.3362 13.351 21.2812 13.4258C21.2384 13.484 21.1958 13.5423 21.1534 13.6008L21.1256 13.6396L21.1425 13.5619C21.1518 13.5191 21.1777 13.3792 21.2 13.2509C21.2222 13.1226 21.2453 13.0023 21.2509 12.9837L21.2613 12.9496H20.52V12.9965C20.52 13.0222 20.4981 13.1774 20.4715 13.3414C20.4447 13.5055 20.4006 13.7796 20.3735 13.9506C20.3464 14.1217 20.2981 14.4191 20.2664 14.6115C20.2326 14.8159 20.1969 15.02 20.1593 15.2237C20.0862 15.6128 20.0114 16.0015 19.9349 16.3899C19.9021 16.5557 19.8629 16.7513 19.8479 16.8249C19.8327 16.8984 19.8203 16.9661 19.8203 16.9754V16.9925H20.2355ZM10.4572 16.9925H10.8753L10.887 16.9618C10.8936 16.9448 10.8989 16.9005 10.8989 16.8633C10.8989 16.8259 10.9252 16.632 10.9573 16.4323C11.0306 15.9774 11.1058 15.5226 11.1828 15.0682C11.2158 14.8768 11.2506 14.6856 11.287 14.4948C11.318 14.3345 11.3655 14.0852 11.3926 13.9409C11.4197 13.7966 11.473 13.522 11.5111 13.3307C11.5492 13.1394 11.585 12.9753 11.5908 12.966L11.6014 12.9489L11.1786 12.9541L10.7558 12.9593L10.7205 13.212C10.7012 13.351 10.6589 13.6266 10.6265 13.8242C10.5941 14.022 10.5451 14.3239 10.5176 14.4948C10.4843 14.6993 10.4488 14.9034 10.4111 15.1071C10.38 15.2728 10.3324 15.5264 10.3052 15.6707C10.2781 15.8151 10.2294 16.0688 10.197 16.2345C10.1646 16.4002 10.1211 16.6188 10.1004 16.7205C10.0796 16.822 10.0574 16.9248 10.0509 16.9488L10.0391 16.9925H10.4572ZM5.22916 16.9925H5.70138L5.73529 16.7836C5.75389 16.6686 5.79033 16.4477 5.81616 16.2928L5.92305 15.6513C5.95601 15.4535 6.00544 15.1606 6.03285 15.0003C6.06026 14.8399 6.10386 14.5912 6.12965 14.4475C6.15549 14.3037 6.18155 14.1813 6.18749 14.1753L6.19842 14.1645H8.73816L8.75229 14.1785L8.76641 14.1926L8.74433 14.3049C8.73228 14.3666 8.69646 14.557 8.66479 14.7281C8.63313 14.8991 8.57988 15.1877 8.54642 15.3696C8.51128 15.5608 8.47552 15.7519 8.43914 15.9429C8.41347 16.0765 8.36157 16.3564 8.32379 16.5649C8.28607 16.7733 8.25525 16.9548 8.25536 16.9682L8.25558 16.9925H9.20399L9.22495 16.8711C9.23655 16.8043 9.25505 16.684 9.26626 16.6038C9.27735 16.5236 9.30431 16.3529 9.326 16.2247C9.3477 16.0965 9.39102 15.8428 9.42235 15.661C9.45363 15.4793 9.50609 15.1687 9.53882 14.971C9.57155 14.7732 9.62009 14.4846 9.64673 14.3296C9.68053 14.135 9.71563 13.9407 9.75213 13.7465C9.78343 13.5808 9.83573 13.3009 9.86823 13.1245C9.90073 12.9481 9.94933 12.6813 9.97633 12.5316C10.0033 12.382 10.0525 12.1108 10.0857 11.9291C10.1189 11.7474 10.1608 11.5353 10.1788 11.4577L10.2115 11.3168H9.25123L9.23818 11.4092C9.23106 11.4599 9.20785 11.6021 9.18667 11.725C9.16542 11.848 9.12697 12.0666 9.10108 12.2109C9.07518 12.3553 9.02788 12.6308 8.99593 12.8233C8.9646 13.0118 8.93445 13.2004 8.90547 13.3893L8.87307 13.6055L8.16826 13.6198L7.46339 13.634L6.87308 13.62C6.54839 13.6123 6.28092 13.6044 6.27868 13.6026C6.27649 13.6007 6.28754 13.5252 6.30323 13.4348C6.32391 13.3181 6.34594 13.2018 6.36931 13.0856C6.39913 12.9368 6.42811 12.7877 6.45619 12.6385C6.48337 12.4943 6.51409 12.315 6.52457 12.2401C6.53499 12.1653 6.55691 12.0406 6.57322 11.9631C6.58953 11.8856 6.62047 11.7223 6.64199 11.6003C6.66346 11.4783 6.68638 11.3646 6.69294 11.3477L6.70471 11.3168H5.75216L5.72172 11.4869C5.70491 11.5805 5.68254 11.7138 5.67201 11.7833C5.66141 11.8528 5.62593 12.0758 5.59315 12.279C5.56036 12.4821 5.51193 12.7839 5.48553 12.9495L5.37887 13.6201C5.34137 13.8537 5.3018 14.0869 5.26027 14.3198C5.22569 14.5111 5.19043 14.7022 5.15451 14.8933C5.12923 15.0269 5.08108 15.2805 5.04745 15.457C5.0122 15.6418 4.97582 15.8265 4.93844 16.0109C4.9121 16.1392 4.88301 16.2879 4.87381 16.3413C4.86451 16.3948 4.83447 16.549 4.80689 16.684C4.77937 16.8189 4.75684 16.9435 4.75684 16.9609V16.9924H5.22916V16.9925ZM33.5041 17.087L33.6888 17.0894L33.8637 17.0609C33.96 17.0454 34.0824 17.0202 34.1359 17.0051C34.1893 16.9899 34.2856 16.9507 34.3496 16.9179L34.4663 16.8581L34.5666 16.7698L34.6669 16.6814L34.7726 16.5406C34.8307 16.463 34.8833 16.3866 34.8895 16.3705L34.9008 16.3413L34.8909 16.4385C34.884 16.5035 34.875 16.5684 34.864 16.633C34.8546 16.6864 34.8413 16.7892 34.8342 16.8613L34.8213 16.9925H35.5839V16.7301L35.642 16.2345C35.6739 15.9618 35.7212 15.5989 35.747 15.4277C35.7728 15.2566 35.8126 15.0119 35.8355 14.8836C35.8583 14.7553 35.8989 14.5234 35.9254 14.3685C35.9521 14.2135 36.0002 13.9423 36.0323 13.7659C36.0644 13.5895 36.116 13.3097 36.1467 13.144C36.1774 12.9782 36.2252 12.7202 36.2529 12.5705C36.2806 12.4209 36.3301 12.1585 36.363 11.9875C36.3975 11.8091 36.4331 11.6308 36.4698 11.4529C36.4957 11.33 36.5169 11.2228 36.5168 11.2148V11.2002H35.6848L35.6725 11.3217C35.6658 11.3885 35.6339 11.6094 35.6018 11.8125C35.5636 12.0524 35.5248 12.292 35.4852 12.5316C35.4622 12.6699 35.4394 12.8081 35.4169 12.9463L35.4064 13.0111L35.3736 12.9972C35.3556 12.9895 35.2577 12.9623 35.1562 12.9368L34.9715 12.8905L34.7188 12.8708L34.4661 12.8511L34.2523 12.871L34.0386 12.891L33.8442 12.9401L33.6498 12.9892L33.4652 13.0793L33.2804 13.1694L33.1444 13.27L33.0083 13.3707L32.8908 13.4968C32.8262 13.5661 32.7328 13.6807 32.6833 13.7515L32.5934 13.8802L32.4877 14.1C32.4296 14.221 32.3589 14.3811 32.3306 14.4559C32.3022 14.5308 32.2523 14.6966 32.2195 14.8245L32.1601 15.0571L32.1308 15.3591L32.1015 15.6611L32.1235 15.904L32.1456 16.147L32.1716 16.2345C32.186 16.2825 32.2161 16.3683 32.2386 16.4249L32.2796 16.528L32.3545 16.6293L32.4293 16.7305L32.5148 16.8005L32.6001 16.8706L32.7168 16.9284C32.781 16.9602 32.8885 17.0015 32.9559 17.0199C33.0232 17.0384 33.1325 17.0605 33.1989 17.0691C33.2653 17.0777 33.4026 17.0858 33.5041 17.087ZM33.8355 16.5357L33.6888 16.5434L33.5898 16.5256C33.5353 16.5158 33.4481 16.4894 33.396 16.4671L33.3013 16.4266L33.2216 16.3612L33.142 16.296L33.0236 16.0693L32.9966 15.9429L32.9697 15.8165L32.972 15.5638L32.9742 15.3112L33.0056 15.0876L33.037 14.8641L33.0857 14.7086C33.1125 14.6231 33.1345 14.5424 33.1347 14.5293C33.1349 14.5162 33.1612 14.4463 33.1935 14.3739C33.2311 14.2901 33.2709 14.2072 33.3128 14.1255C33.3464 14.0613 33.4091 13.9614 33.452 13.9033C33.4951 13.8453 33.5718 13.7578 33.6225 13.7089C33.6732 13.6601 33.7537 13.596 33.8016 13.5666L33.8886 13.5131L34.0415 13.4601L34.1943 13.4072L34.515 13.4071H34.8357L35.0204 13.4583C35.122 13.4865 35.2298 13.5192 35.26 13.5309L35.315 13.5523L35.3043 13.6056C35.2985 13.635 35.2753 13.764 35.253 13.8922C35.2307 14.0205 35.1866 14.2655 35.1552 14.4365C35.1237 14.6076 35.0754 14.8656 35.0478 15.0099C35.0202 15.1542 34.9802 15.3379 34.9589 15.418C34.9371 15.5004 34.9149 15.5827 34.8923 15.6648C34.8769 15.7203 34.8402 15.8167 34.8108 15.8786C34.7814 15.9406 34.7299 16.0308 34.6963 16.0788C34.6628 16.1269 34.6062 16.1936 34.5705 16.2269C34.5346 16.2603 34.4572 16.3195 34.3985 16.3587L34.2916 16.4297L33.9826 16.5278L33.8355 16.5357ZM26.9342 17.0801L27.1966 17.0726L27.3618 17.0303L27.5271 16.9879L27.634 16.9375C27.6928 16.9098 27.789 16.8548 27.8477 16.8155C27.9066 16.7763 27.9977 16.7017 28.05 16.6497C28.1024 16.5976 28.1802 16.509 28.2228 16.4526C28.2653 16.3961 28.3028 16.3525 28.3059 16.3557C28.3091 16.3589 28.2993 16.4486 28.2841 16.5553C28.269 16.6622 28.2564 16.8041 28.2562 16.8709L28.2559 16.9923H28.9693L28.9802 16.7155L28.9911 16.4385L29.042 16.0789C29.07 15.8811 29.1152 15.5881 29.1425 15.4277C29.1697 15.2675 29.2171 14.9963 29.2478 14.8252C29.2785 14.6542 29.3271 14.3874 29.3557 14.2324L29.408 13.9506L29.4098 13.7072L29.4114 13.4637L29.3565 13.3512L29.3014 13.2386L29.2268 13.167L29.1521 13.0953L29.0296 13.0333L28.907 12.9711L28.5417 12.8898L28.2902 12.8707L28.0387 12.8516L27.7149 12.8717C27.5366 12.8827 27.286 12.9044 27.1577 12.9201L26.9244 12.9483L26.6065 12.9495L26.5834 13.0614C26.5707 13.1228 26.5353 13.2688 26.5049 13.3859C26.4743 13.5029 26.4523 13.6014 26.4557 13.6049C26.4591 13.6084 26.5441 13.5891 26.6446 13.562C26.745 13.535 26.9585 13.4906 27.1189 13.4632L27.4104 13.4136L27.6728 13.4028L27.9352 13.3919L28.2733 13.4512L28.3861 13.5069L28.4989 13.5626L28.5621 13.6568L28.6253 13.7509L28.6244 13.8993L28.6234 14.0478L28.5899 14.2106L28.5564 14.3736L27.857 14.3761L27.1576 14.3786L26.9288 14.4413C26.8029 14.4759 26.6635 14.5217 26.619 14.5432C26.5745 14.5647 26.53 14.5823 26.52 14.5823C26.5102 14.5823 26.4353 14.6238 26.3536 14.6746L26.2052 14.7668L26.0884 14.8835C26.024 14.9477 25.9419 15.0439 25.9058 15.0973C25.8697 15.1507 25.811 15.2624 25.7755 15.3455L25.7108 15.4965L25.6812 15.6661L25.6515 15.8359V16.1921L25.6798 16.3403L25.7082 16.4886L25.7607 16.5854C25.7897 16.6385 25.8429 16.7164 25.8788 16.7585L25.9443 16.835L26.0604 16.9056L26.1767 16.9762L26.3098 17.0138C26.383 17.0344 26.4944 17.0596 26.5574 17.0696L26.6718 17.0876L26.9342 17.0801ZM27.1772 16.5366L27.0217 16.5447L26.9187 16.5185C26.8621 16.5041 26.7761 16.4719 26.7278 16.4471L26.6398 16.4018L26.5917 16.3447C26.5653 16.3132 26.525 16.2515 26.502 16.2075L26.4604 16.1275L26.4523 15.9408L26.444 15.7539L26.477 15.6405C26.4951 15.5782 26.5376 15.4699 26.5716 15.4001L26.6331 15.2731L26.751 15.1561L26.8688 15.039L26.9939 14.9788L27.119 14.9186L27.2745 14.8816L27.4299 14.8447H28.4018L28.4326 14.8574L28.4633 14.8701L28.4375 15.0226C28.4232 15.1065 28.3893 15.2582 28.362 15.3598C28.3348 15.4614 28.2866 15.6106 28.2551 15.6915C28.2236 15.7725 28.1978 15.844 28.1978 15.8505C28.1978 15.857 28.1658 15.9159 28.1267 15.9815L28.0557 16.1007L27.9392 16.2162C27.8751 16.2797 27.8156 16.3316 27.807 16.3316C27.7984 16.3316 27.7591 16.3537 27.7197 16.3803L27.6481 16.4288L27.4904 16.4788L27.3328 16.5286L27.1772 16.5366ZM23.737 17.0873L23.9509 17.0896L24.1937 17.0608C24.3273 17.0451 24.5051 17.0188 24.5889 17.0025C24.6901 16.9821 24.7906 16.9583 24.8901 16.931C24.9721 16.9078 25.0462 16.8828 25.0549 16.8754C25.0636 16.868 25.0866 16.7798 25.1063 16.6794C25.126 16.579 25.1507 16.4444 25.1613 16.3803C25.1718 16.3161 25.1773 16.2602 25.1735 16.256C25.1695 16.2518 25.1552 16.2572 25.1416 16.268C25.128 16.2789 25.0327 16.319 24.9297 16.3572L24.7426 16.4267L24.476 16.4784L24.2094 16.5299L23.9829 16.5223L23.7563 16.5145L23.6275 16.4698L23.4988 16.4251L23.3994 16.3382L23.3 16.2512L23.234 16.1309L23.168 16.0108L23.1365 15.85L23.105 15.6893L23.1053 15.4808L23.1055 15.2722L23.1437 15.0195L23.1819 14.7668L23.2223 14.6307C23.2445 14.5559 23.2697 14.4685 23.2782 14.4364C23.2867 14.4043 23.3223 14.3125 23.3574 14.2323C23.3924 14.1521 23.455 14.0282 23.4963 13.9569L23.5715 13.8274L23.664 13.7316L23.7563 13.6358L23.8541 13.5752L23.952 13.5145L24.0777 13.4757C24.1468 13.4544 24.269 13.4268 24.3492 13.4144L24.495 13.3916L24.7087 13.4024L24.9225 13.4131L25.1752 13.4637L25.4279 13.5142L25.5307 13.5525C25.5872 13.5736 25.6359 13.5909 25.639 13.5909C25.642 13.5909 25.6555 13.5187 25.6691 13.4305C25.6826 13.3423 25.7067 13.1972 25.7226 13.1081C25.7386 13.0189 25.7478 12.9421 25.743 12.9374C25.7384 12.9327 25.6624 12.9207 25.5743 12.9106C25.4862 12.9006 25.2466 12.8828 25.042 12.871L24.6699 12.8496L24.4074 12.8697L24.145 12.8899L23.9506 12.9307L23.7562 12.9716L23.6311 13.0216C23.5622 13.0491 23.4614 13.0989 23.407 13.132C23.3548 13.1638 23.3035 13.1968 23.2531 13.2312C23.2229 13.2527 23.1312 13.3361 23.0492 13.4166L22.9004 13.5632L22.8172 13.6849C22.7716 13.7519 22.6925 13.8914 22.6416 13.9952L22.549 14.1837L22.478 14.3878C22.439 14.5 22.3844 14.6837 22.3569 14.796L22.3067 15L22.2885 15.1847L22.2704 15.3694L22.2705 15.6123L22.2708 15.8552L22.2891 15.9966L22.3074 16.1379L22.3656 16.2833L22.4238 16.4287L22.4911 16.5338L22.5583 16.6389L22.6652 16.7442L22.7722 16.8494L22.8852 16.9093L22.9984 16.9689L23.147 17.0103C23.2286 17.0329 23.3467 17.059 23.4094 17.0681C23.472 17.0773 23.6195 17.0858 23.7372 17.0871H23.737V17.0873ZM17.5559 17.0872L17.7697 17.0896L17.9835 17.0701C18.1012 17.0594 18.2935 17.0371 18.4111 17.0204C18.5288 17.0039 18.7319 16.9668 18.8626 16.9381L19.1002 16.8859L19.1121 16.7982C19.1185 16.75 19.1452 16.6066 19.1714 16.4795L19.2188 16.2483L19.2083 16.2379L19.1978 16.2274L19.1252 16.2625C19.0852 16.2818 18.9607 16.3278 18.8486 16.3647L18.6447 16.4318L18.4307 16.4734L18.2167 16.5148L17.8766 16.5155L17.5365 16.5161L17.4198 16.4789C17.3557 16.4584 17.2614 16.421 17.2102 16.3956L17.1172 16.3496L16.9637 16.2108L16.9038 16.1062L16.8439 16.0014L16.8063 15.8701L16.7688 15.7388L16.7685 15.4957L16.7683 15.2527L16.8016 15.036L16.835 14.8191L17.4199 14.7918L18.5012 14.7988L19.5824 14.8057L19.615 14.6672C19.633 14.591 19.6604 14.4336 19.676 14.3174L19.7044 14.1059L19.705 13.9282L19.7057 13.7503L19.6749 13.6175L19.644 13.4848L19.5931 13.3969C19.5652 13.3486 19.5158 13.2785 19.4836 13.2412C19.4513 13.2039 19.3936 13.1514 19.3554 13.1244C19.3171 13.0975 19.2422 13.0521 19.1887 13.0237L19.0916 12.972L18.9218 12.9311L18.752 12.8902L18.5429 12.8702L18.3336 12.8502L18.1393 12.8629L17.9449 12.8755L17.7116 12.9203L17.4784 12.9651L17.3326 13.0234C17.2524 13.0554 17.1299 13.1139 17.0605 13.1533C16.991 13.1927 16.8948 13.2568 16.8468 13.2958C16.7986 13.3348 16.7152 13.4105 16.6616 13.4642C16.6079 13.5179 16.5284 13.6142 16.4852 13.6783C16.4418 13.7425 16.3753 13.8562 16.3373 13.931C16.2994 14.0059 16.25 14.1108 16.2276 14.1643C16.2052 14.2177 16.1643 14.3271 16.1369 14.4072C16.1095 14.4874 16.0663 14.6405 16.0411 14.7474C16.0114 14.8769 15.9858 15.0073 15.9642 15.1384L15.9331 15.3351L15.9335 15.6244L15.9338 15.9136L15.9633 16.0399C15.9795 16.1094 16.0106 16.2144 16.0323 16.2732C16.0539 16.332 16.0942 16.4194 16.1216 16.4676C16.1489 16.5156 16.2074 16.5931 16.2515 16.6397C16.2955 16.6862 16.3754 16.7569 16.4288 16.7967C16.4822 16.8364 16.5774 16.8925 16.6402 16.9211L16.7545 16.9731L16.9138 17.0116C17.0014 17.0329 17.1337 17.0579 17.2077 17.0675C17.2816 17.077 17.4384 17.0859 17.5559 17.0872ZM17.922 14.3491C17.3839 14.3491 16.9436 14.3453 16.9436 14.3405C16.9436 14.3359 16.9666 14.268 16.9947 14.1898C17.0227 14.1117 17.072 13.9955 17.1042 13.9315L17.1627 13.815L17.2913 13.6872L17.4198 13.5592L17.5462 13.4989C17.6157 13.4656 17.7075 13.4294 17.7503 13.4184C17.7931 13.4075 17.9155 13.3929 18.0224 13.3861L18.2168 13.3736L18.3661 13.3928L18.5153 13.412L18.6238 13.4617L18.7323 13.5113L18.7919 13.5755C18.8245 13.6107 18.8635 13.6627 18.8785 13.6909L18.9056 13.7422L18.9235 13.8561L18.9415 13.97L18.9209 14.1595L18.9004 14.3491H17.922ZM12.1383 18.8001L12.1501 18.7694C12.1566 18.7525 12.1619 18.7128 12.1619 18.681C12.1619 18.6494 12.1757 18.5343 12.1925 18.4252C12.2094 18.316 12.2488 18.065 12.2803 17.8673C12.3118 17.6695 12.3588 17.372 12.385 17.2064C12.4098 17.0494 12.4334 16.8923 12.4559 16.735C12.4687 16.6414 12.4843 16.5649 12.4907 16.5649C12.4969 16.5649 12.524 16.6063 12.5507 16.6568L12.5992 16.7486L12.707 16.8573L12.8147 16.9659L12.9473 17.019L13.08 17.072L13.2381 17.0925L13.3962 17.113L13.5968 17.1007L13.7974 17.0883L14.0147 17.0321L14.232 16.9759L14.3486 16.9227C14.4127 16.8935 14.5264 16.8295 14.6012 16.7808L14.7373 16.6923L14.8642 16.5654C14.9339 16.4958 15.0324 16.3839 15.0828 16.3168C15.1334 16.25 15.1747 16.1903 15.1747 16.1844C15.1747 16.1784 15.1995 16.137 15.2298 16.0922C15.2602 16.0475 15.3221 15.9234 15.3677 15.8166C15.4132 15.7097 15.4843 15.5173 15.5258 15.389L15.6011 15.1557L15.6401 14.9537C15.6615 14.8426 15.689 14.6589 15.7013 14.5455L15.7236 14.3394L15.7107 14.1645L15.6978 13.9895L15.6572 13.8145L15.6167 13.6396L15.551 13.5087L15.4854 13.3777L15.3585 13.2432L15.2317 13.1088L14.9316 12.9537L14.7664 12.9141L14.6012 12.8746L14.436 12.8625L14.2708 12.8504L14.0868 12.8715L13.9026 12.8926L13.7525 12.931L13.6023 12.9693L13.4717 13.0298C13.4 13.0629 13.2955 13.1194 13.2397 13.1551C13.1838 13.1909 13.1261 13.232 13.1116 13.2465C13.0971 13.261 13.0621 13.288 13.0341 13.3062L12.9831 13.3397L13.0187 13.1689C13.0384 13.075 13.0547 12.9873 13.0552 12.9739L13.056 12.9496H12.3433L12.2808 13.3432C12.2464 13.5597 12.1921 13.8942 12.1602 14.0867C12.0897 14.5112 12.0185 14.9356 11.9463 15.3598C11.9145 15.5468 11.862 15.8442 11.8296 16.0207C11.7971 16.197 11.7496 16.4551 11.724 16.5941C11.6984 16.733 11.65 16.9954 11.6167 17.1771C11.5775 17.391 11.5378 17.6048 11.4977 17.8186C11.4598 18.0196 11.421 18.2203 11.3815 18.4211C11.3496 18.5813 11.3189 18.7323 11.313 18.7563L11.3024 18.8H12.1383V18.8001ZM13.3573 16.5627L13.2512 16.5438L13.1451 16.5251L13.0374 16.476L12.9296 16.4268L12.8544 16.3549L12.7791 16.2831L12.7357 16.1859C12.7118 16.1325 12.6811 16.0416 12.6675 15.984L12.6427 15.8795L12.6526 15.712L12.6626 15.5445L12.7127 15.2821C12.7505 15.0815 12.7871 14.8806 12.8225 14.6796C12.8554 14.4925 12.9053 14.2183 12.9333 14.0704L12.9841 13.8014L13.0955 13.7087C13.1569 13.6577 13.2539 13.5893 13.3113 13.5568L13.4156 13.4976L13.5516 13.4555L13.6877 13.4134L14.0376 13.3929L14.18 13.4233L14.3225 13.4536L14.423 13.4999L14.5235 13.5462L14.6078 13.6309L14.6922 13.7157L14.7376 13.8054C14.7626 13.8548 14.7977 13.9514 14.8156 14.0201L14.8482 14.145L14.8382 14.5144L14.8282 14.8837L14.7784 15.102C14.7509 15.2221 14.6987 15.4058 14.6622 15.5101L14.596 15.7L14.5149 15.8537C14.4703 15.9383 14.4015 16.0525 14.362 16.1076C14.3226 16.1626 14.2596 16.2341 14.2222 16.2662C14.1768 16.3047 14.1304 16.342 14.083 16.3778L14.0117 16.431L13.6818 16.5432L13.3573 16.5627Z" fill="white"/>
</svg>