<svg xmlns="http://www.w3.org/2000/svg" width="42" height="30" viewBox="0 0 42 30" fill="none">
<g clip-path="url(#clip0_204_77)">
<path fill-rule="evenodd" clip-rule="evenodd" d="M38.1877 3.0344e-07C36.1374 5.29934e-07 14.4299 -4.80955e-07 2.30715 3.0344e-07C1.28199 3.69773e-07 0.256836 1.2 0.256836 2.4V26.4C0.256836 28.8 1.28199 30 3.33231 30C14.7688 30 36.1374 30 38.1877 30C40.238 30 41.2632 28.8 41.2632 26.4V3.6C41.2632 1.2 40.238 3.0344e-07 38.1877 3.0344e-07Z" fill="#3D3D3D"/>
<path fill-rule="evenodd" clip-rule="evenodd" d="M3.72128 11.6573L2.92709 9.76957L2.13745 11.6573H3.72128ZM21.2171 10.9056C21.0576 11 20.869 11.0032 20.6431 11.0032H19.2335V9.95139H20.6623C20.8645 9.95139 21.0755 9.96025 21.2125 10.0368C21.363 10.1058 21.4562 10.2526 21.4562 10.4554C21.4562 10.6624 21.3676 10.8289 21.2171 10.9056C21.3676 10.8289 21.2171 10.9056 21.2171 10.9056ZM31.2729 11.6573L30.47 9.76957L29.6714 11.6573H31.2729ZM12.5282 13.7006H11.3387L11.3343 9.99196L9.65175 13.7006H8.63295L6.94604 9.98867V13.7006H4.58604L4.14019 12.6444H1.72425L1.27386 13.7006H0.0136171L2.09147 8.96531H3.81543L5.78888 13.4487V8.96531H7.68269L9.20121 12.1776L10.5962 8.96531H12.528V13.7006H12.5282ZM17.2691 13.7006H13.3929V8.96531H17.2691V9.95139H14.5533V10.8049H17.204V11.7756H14.5533V12.7212H17.2691V13.7006ZM22.7344 10.2406C22.7344 10.9956 22.2179 11.3857 21.9168 11.5028C22.1707 11.5971 22.3876 11.7636 22.4908 11.9016C22.6546 12.1371 22.6829 12.3475 22.6829 12.7704V13.7006H21.5125L21.5082 13.1035C21.5082 12.8185 21.5361 12.4087 21.325 12.1809C21.1554 12.0144 20.897 11.9783 20.4793 11.9783H19.2337V13.7006H18.0734V8.96531H20.7422C21.3352 8.96531 21.7721 8.9806 22.1473 9.19212C22.5144 9.40365 22.7344 9.71244 22.7344 10.2406C22.7344 9.71244 22.7344 10.2406 22.7344 10.2406ZM24.5913 13.7006H23.4074V8.96531H24.5913V13.7006ZM38.3267 13.7006H36.6824L34.4831 10.1465V13.7006H32.12L31.6684 12.6444H29.258L28.82 13.7006H27.4622C26.8982 13.7006 26.1841 13.5789 25.7797 13.1769C25.3719 12.7748 25.1597 12.2302 25.1597 11.3691C25.1597 10.6668 25.2865 10.0248 25.7852 9.51748C26.1604 9.13956 26.7478 8.96531 27.5474 8.96531H28.6708V9.97996H27.571C27.1475 9.97996 26.9084 10.0414 26.6781 10.2605C26.4803 10.4599 26.3446 10.8368 26.3446 11.3331C26.3446 11.8404 26.4479 12.2062 26.6636 12.4452C26.8423 12.6325 27.1669 12.6894 27.4723 12.6894H27.9934L29.6288 8.96546H31.3674L33.3319 13.4444V8.96546H35.0986L37.1383 12.2633V8.96546H38.3267V13.7006ZM0.000146421 14.6307H1.98268L2.4297 13.5789H3.43049L3.87634 14.6307H7.77713V13.8266L8.12531 14.6341H10.1503L10.4985 13.8146V14.6307H20.1927L20.1882 12.9042H20.3757C20.5071 12.9086 20.5454 12.9205 20.5454 13.132V14.6307H25.5593V14.2288C25.9637 14.4402 26.5928 14.6307 27.4205 14.6307H29.5298L29.9812 13.5789H30.982L31.4235 14.6307H35.4882V13.6316L36.1038 14.6307H39.3611V8.02637H36.1375V8.80635L35.6861 8.02637H32.3783V8.80635L31.9638 8.02637H27.4957C26.7478 8.02637 26.0904 8.1282 25.5593 8.412V8.02637H22.476V8.412C22.1381 8.11949 21.6776 8.02637 21.1655 8.02637H9.90096L9.14513 9.73215L8.36896 8.02637H4.8209V8.80635L4.43112 8.02637H1.4052L0 11.1664V14.6307H0.000146421ZM41.2727 18.1177H39.158C38.9468 18.1177 38.8066 18.1254 38.6884 18.2032C38.566 18.2799 38.5188 18.3938 38.5188 18.544C38.5188 18.7227 38.6222 18.8443 38.7726 18.8968C38.895 18.9384 39.0265 18.9505 39.2198 18.9505L39.8486 18.9669C40.4832 18.9822 40.9068 19.0886 41.1651 19.3481C41.2121 19.3843 41.2404 19.4248 41.2727 19.4654V18.1177ZM41.2727 21.2403C40.9909 21.6424 40.4416 21.8462 39.6981 21.8462H37.4573V20.8306H39.689C39.9104 20.8306 40.0653 20.8021 40.1586 20.7133C40.2394 20.64 40.2958 20.5336 40.2958 20.4044C40.2958 20.2664 40.2394 20.1568 40.1541 20.0911C40.0699 20.0189 39.9473 19.986 39.7453 19.986C38.6558 19.9499 37.2965 20.0189 37.2965 18.52C37.2965 17.833 37.7437 17.1099 38.9613 17.1099H41.2726V16.1675H39.1252C38.4771 16.1675 38.0064 16.3189 37.673 16.5543V16.1675H34.4967C33.9887 16.1675 33.3925 16.2904 33.1105 16.5543V16.1675H27.4385V16.5543C26.9871 16.2367 26.2254 16.1675 25.8738 16.1675H22.1325V16.5543C21.7754 16.2169 20.9812 16.1675 20.4971 16.1675H16.3099L15.3518 17.179L14.4543 16.1675H8.19955V22.7764H14.3366L15.3239 21.7489L16.254 22.7764L20.0369 22.7797V21.225H20.4088C20.9108 21.2326 21.5027 21.2129 22.025 20.9927V22.7763H25.1452V21.0538H25.2958C25.4879 21.0538 25.5068 21.0615 25.5068 21.2488V22.7761H34.9854C35.5872 22.7761 36.2162 22.6259 36.5646 22.3532V22.7761H39.5712C40.1968 22.7761 40.8078 22.6906 41.2727 22.4715V21.2403ZM36.6442 19.3481C36.8702 19.5762 36.9912 19.8642 36.9912 20.3517C36.9912 21.3706 36.3386 21.8462 35.1685 21.8462H32.9085V20.8306H35.1594C35.3794 20.8306 35.5355 20.8021 35.6333 20.7133C35.7131 20.64 35.7704 20.5336 35.7704 20.4044C35.7704 20.2664 35.7085 20.1568 35.6288 20.0911C35.5401 20.0189 35.4177 19.986 35.2156 19.986C34.1305 19.9499 32.7716 20.0189 32.7716 18.52C32.7716 17.833 33.214 17.1099 34.4305 17.1099H36.7567V18.118H34.6282C34.4172 18.118 34.28 18.1257 34.1633 18.2035C34.0362 18.2802 33.989 18.3941 33.989 18.5443C33.989 18.723 34.097 18.8445 34.2429 18.8971C34.3653 18.9387 34.4968 18.9508 34.6945 18.9508L35.3191 18.9672C35.949 18.9822 36.3814 19.0885 36.6442 19.3481C36.3814 19.0885 36.6442 19.3481 36.6442 19.3481ZM26.174 19.0556C26.0188 19.1455 25.8268 19.1532 25.601 19.1532H24.1915V18.0894H25.6202C25.8268 18.0894 26.0336 18.0937 26.174 18.175C26.3244 18.2517 26.4143 18.3983 26.4143 18.601C26.4143 18.8037 26.3244 18.9669 26.174 19.0556C26.3244 18.9669 26.174 19.0556 26.174 19.0556ZM26.8748 19.6451C27.133 19.7381 27.3442 19.9047 27.4432 20.0427C27.607 20.274 27.6307 20.4898 27.6354 20.9073V21.8462H26.4705V21.2536C26.4705 20.9687 26.4986 20.5468 26.2829 20.3265C26.1134 20.1568 25.8549 20.1163 25.4316 20.1163H24.1916V21.8462H23.0257V17.1098H25.7046C26.292 17.1098 26.7198 17.135 27.1007 17.3333C27.4669 17.5491 27.6972 17.8447 27.6972 18.3851C27.6971 19.141 27.1802 19.5268 26.8748 19.6451C27.1802 19.5268 26.8748 19.6451 26.8748 19.6451ZM28.3406 17.1098H32.2132V18.0893H29.4961V18.9504H32.1469V19.9167H29.4961V20.8591L32.2132 20.8634V21.8462H28.3406V17.1098ZM20.5119 19.2956H19.0124V18.0894H20.5254C20.9443 18.0894 21.2351 18.2559 21.2351 18.6701C21.2351 19.0798 20.9578 19.2956 20.5119 19.2956ZM17.8567 21.4154L16.0752 19.4861L17.8567 17.6181V21.4154ZM13.256 20.8591H10.4032V19.9167H12.9506V18.9504H10.4032V18.0893H13.3123L14.5814 19.4696L13.256 20.8591ZM22.4808 18.6701C22.4808 19.9859 21.4745 20.2575 20.4602 20.2575H19.0124V21.8462H16.7571L15.3283 20.2782L13.8435 21.8462H9.24734V17.1098H13.9142L15.3418 18.6623L16.8177 17.1098H20.5254C21.4462 17.1098 22.4808 17.3584 22.4808 18.6701C22.4808 17.3584 22.4808 18.6701 22.4808 18.6701Z" fill="white"/>
</g>
<defs>
<clipPath id="clip0_204_77">
<rect width="42" height="30" fill="white"/>
</clipPath>
</defs>
</svg>