<svg xmlns="http://www.w3.org/2000/svg" width="42" height="30" viewBox="0 0 42 30" fill="none">
<path d="M39.1269 0H3.2376C1.75102 0 0.545898 1.18513 0.545898 2.64706V27.3529C0.545898 28.8149 1.75102 30 3.2376 30H39.1269C40.6135 30 41.8186 28.8149 41.8186 27.3529V2.64706C41.8186 1.18513 40.6135 0 39.1269 0Z" fill="#3D3D3D"/>
<path d="M16.9092 19.2346H19.2501L20.7153 10.7852H18.3735L16.9092 19.2346Z" fill="white"/>
<path d="M25.4375 14.1781C24.6193 13.7873 24.1177 13.5261 24.1231 13.1308C24.1231 12.7779 24.5475 12.4037 25.469 12.4037C26.1479 12.387 26.821 12.5314 27.4312 12.8246L27.7488 10.9937C27.0757 10.7549 26.3649 10.6355 25.6493 10.6408C23.3353 10.6408 21.7015 11.7879 21.6916 13.429C21.679 14.6431 22.858 15.3208 23.7436 15.7231C24.6552 16.137 24.962 16.4008 24.9575 16.7705C24.9512 17.337 24.2299 17.5964 23.5561 17.5964C22.6843 17.6164 21.8219 17.4175 21.0501 17.0184L20.7217 18.9093C21.5565 19.2127 22.44 19.3654 23.3299 19.3602C25.792 19.3602 27.3899 18.2273 27.4079 16.474C27.4124 15.5123 26.7888 14.7808 25.4375 14.1781Z" fill="white"/>
<path d="M33.7493 10.7935H31.9396C31.6853 10.7614 31.4273 10.8127 31.2056 10.9394C30.9839 11.066 30.8108 11.261 30.7131 11.4941L27.2354 19.2349H29.6947C29.6947 19.2349 30.0967 18.1938 30.1873 17.9652H33.1867C33.2567 18.2617 33.4721 19.2314 33.4721 19.2314H35.6452L33.7493 10.7935ZM30.862 16.2402C30.9589 15.9958 31.9145 13.5826 32.1056 13.0717C32.4214 14.5276 32.1137 13.1149 32.8054 16.2402H30.862Z" fill="white"/>
<path d="M14.9445 10.7921L12.6511 16.5538L12.4071 15.3829L11.5861 11.5006C11.5263 11.2757 11.3858 11.0796 11.1906 10.9484C10.9954 10.8172 10.7586 10.7598 10.5238 10.7868H6.74738L6.71777 10.9632C7.57642 11.1625 8.40391 11.4744 9.17798 11.8906L11.2595 19.2291H13.7377L17.4244 10.7956L14.9445 10.7921Z" fill="white"/>
</svg>