<svg xmlns="http://www.w3.org/2000/svg" width="42" height="30" viewBox="0 0 42 30" fill="none">
<path d="M38.6718 0H2.78252C1.29581 0 0.0908203 1.185 0.0908203 2.64706V27.3529C0.0908203 28.815 1.29581 30 2.78252 30H38.6718C40.1586 30 41.3635 28.815 41.3635 27.3529V2.64706C41.3635 1.185 40.1586 0 38.6718 0Z" fill="#3D3D3D"/>
<path d="M18.0352 11.5957V18.4039C19.5793 18.0095 20.7269 16.6392 20.7269 14.9998C20.7269 13.3604 19.5793 11.9901 18.0352 11.5957Z" fill="white"/>
<path d="M24.3157 7.94141H17.1379C13.1739 7.94141 9.95996 11.102 9.95996 15.0002C9.95996 18.8985 13.1739 22.0591 17.1379 22.0591H24.3157C28.2797 22.0591 31.4936 18.8985 31.4936 15.0002C31.4936 11.102 28.2797 7.94141 24.3157 7.94141ZM17.1379 20.2943C14.1689 20.2943 11.7545 17.9199 11.7545 15.0002C11.7545 12.0805 14.1689 9.70611 17.1379 9.70611C20.1068 9.70611 22.5213 12.0805 22.5213 15.0002C22.5213 17.9199 20.1068 20.2943 17.1379 20.2943Z" fill="white"/>
<path d="M16.2415 11.5957C14.6974 11.9901 13.5498 13.3604 13.5498 14.9998C13.5498 16.6392 14.6974 18.0095 16.2415 18.4039V11.5957Z" fill="white"/>
</svg>