<svg xmlns="http://www.w3.org/2000/svg" width="42" height="30" viewBox="0 0 42 30" fill="none">
<path d="M39.9094 0H2.63672C1.53215 0 0.636719 0.89543 0.636719 2V28C0.636719 29.1046 1.53215 30 2.63672 30H39.9094C41.014 30 41.9094 29.1046 41.9094 28V2C41.9094 0.89543 41.014 0 39.9094 0Z" fill="#3D3D3D"/>
<path fill-rule="evenodd" clip-rule="evenodd" d="M8.77246 5.72559H10.3004V21.2754H8.77246V5.72559ZM18.1724 5.72559H19.7004V21.2754H18.1724V5.72559ZM25.9894 5.72559H27.5174V21.2754H25.9894V5.72559ZM29.0988 5.72559H30.6268V21.2754H29.0988V5.72559ZM32.2444 5.72559H33.7724V21.2754H32.2444V5.72559ZM21.2817 5.72559H24.3895V21.2754H21.2817V5.72559ZM11.8996 5.72559H16.5709V21.2754H11.8996V5.72559Z" fill="white"/>
<path d="M15.2822 24.2754V22.1426H16.0132C16.2544 22.1426 16.438 22.1909 16.564 22.2876C16.6899 22.3843 16.7529 22.5283 16.7529 22.7197C16.7529 22.8174 16.7266 22.9053 16.6738 22.9834C16.6211 23.0615 16.5439 23.1221 16.4424 23.165C16.5576 23.1963 16.6465 23.2554 16.709 23.3423C16.7725 23.4282 16.8042 23.5317 16.8042 23.6528C16.8042 23.853 16.7397 24.0068 16.6108 24.1143C16.4829 24.2217 16.2993 24.2754 16.0601 24.2754H15.2822ZM15.6528 23.313V23.9795H16.0644C16.1807 23.9795 16.2715 23.9507 16.3369 23.8931C16.4023 23.8354 16.4351 23.7554 16.4351 23.6528C16.4351 23.4312 16.3218 23.3179 16.0952 23.313H15.6528ZM15.6528 23.0405H16.0161C16.1313 23.0405 16.2212 23.0146 16.2856 22.9629C16.3511 22.9102 16.3838 22.8359 16.3838 22.7402C16.3838 22.6348 16.3535 22.5586 16.293 22.5117C16.2334 22.4648 16.1401 22.4414 16.0132 22.4414H15.6528V23.0405ZM19.1269 23.2646C19.1269 23.4736 19.0908 23.6572 19.0186 23.8154C18.9463 23.9727 18.8428 24.0938 18.708 24.1787C18.5742 24.2627 18.4199 24.3047 18.2451 24.3047C18.0723 24.3047 17.918 24.2627 17.7822 24.1787C17.6475 24.0938 17.543 23.9731 17.4687 23.8169C17.3955 23.6606 17.3584 23.4805 17.3574 23.2764V23.1562C17.3574 22.9482 17.394 22.7646 17.4673 22.6055C17.5415 22.4463 17.6455 22.3247 17.7793 22.2407C17.9141 22.1558 18.0684 22.1133 18.2422 22.1133C18.416 22.1133 18.5698 22.1553 18.7036 22.2393C18.8384 22.3223 18.9424 22.4424 19.0156 22.5996C19.0889 22.7559 19.126 22.938 19.1269 23.146V23.2646ZM18.7563 23.1533C18.7563 22.917 18.7114 22.7358 18.6216 22.6099C18.5327 22.4839 18.4062 22.4209 18.2422 22.4209C18.082 22.4209 17.9565 22.4839 17.8657 22.6099C17.7759 22.7349 17.73 22.9121 17.728 23.1416V23.2646C17.728 23.499 17.7734 23.6802 17.8643 23.8081C17.9561 23.936 18.083 24 18.2451 24C18.4092 24 18.5352 23.9375 18.623 23.8125C18.7119 23.6875 18.7563 23.5049 18.7563 23.2646V23.1533ZM20.1167 23.9795H21.085V24.2754H19.7461V22.1426H20.1167V23.9795ZM22.8657 23.3232H21.9897V23.9795H23.0137V24.2754H21.6191V22.1426H23.0034V22.4414H21.9897V23.0303H22.8657V23.3232ZM25.1357 22.4414H24.4707V24.2754H24.103V22.4414H23.4438V22.1426H25.1357V22.4414ZM27.3281 23.2646C27.3281 23.4736 27.292 23.6572 27.2197 23.8154C27.1475 23.9727 27.0439 24.0938 26.9092 24.1787C26.7754 24.2627 26.6211 24.3047 26.4463 24.3047C26.2734 24.3047 26.1191 24.2627 25.9834 24.1787C25.8486 24.0938 25.7441 23.9731 25.6699 23.8169C25.5967 23.6606 25.5596 23.4805 25.5586 23.2764V23.1562C25.5586 22.9482 25.5952 22.7646 25.6685 22.6055C25.7427 22.4463 25.8467 22.3247 25.9805 22.2407C26.1152 22.1558 26.2695 22.1133 26.4434 22.1133C26.6172 22.1133 26.771 22.1553 26.9048 22.2393C27.0395 22.3223 27.1436 22.4424 27.2168 22.5996C27.29 22.7559 27.3271 22.938 27.3281 23.146V23.2646ZM26.9575 23.1533C26.9575 22.917 26.9126 22.7358 26.8228 22.6099C26.7339 22.4839 26.6074 22.4209 26.4434 22.4209C26.2832 22.4209 26.1577 22.4839 26.0669 22.6099C25.977 22.7349 25.9312 22.9121 25.9292 23.1416V23.2646C25.9292 23.499 25.9746 23.6802 26.0654 23.8081C26.1572 23.936 26.2842 24 26.4463 24C26.6103 24 26.7363 23.9375 26.8242 23.8125C26.9131 23.6875 26.9575 23.5049 26.9575 23.2646V23.1533Z" fill="white"/>
</svg>