<svg xmlns="http://www.w3.org/2000/svg" width="43" height="30" viewBox="0 0 43 30" fill="none">
<path d="M39.3994 0H3.51006C2.02347 0 0.818359 1.18513 0.818359 2.64706V27.3529C0.818359 28.8149 2.02347 30 3.51006 30H39.3994C40.886 30 42.0911 28.8149 42.0911 27.3529V2.64706C42.0911 1.18513 40.886 0 39.3994 0Z" fill="#3D3D3D"/>
<path d="M8.32086 26.4535V24.2635C8.33222 24.0793 8.30852 23.8945 8.25135 23.7215C8.19418 23.5484 8.10485 23.391 7.98931 23.2597C7.87377 23.1285 7.73467 23.0264 7.58129 22.9604C7.4279 22.8943 7.26374 22.8657 7.09975 22.8765C6.8851 22.8607 6.67061 22.9099 6.47866 23.0191C6.28672 23.1282 6.12437 23.2933 6.00855 23.497C5.90298 23.2994 5.75192 23.1374 5.57131 23.0282C5.39069 22.919 5.1872 22.8666 4.9823 22.8765C4.80369 22.8664 4.62581 22.9088 4.46631 22.9998C4.30681 23.0907 4.17121 23.2269 4.07296 23.3948V22.9641H3.39746V26.4535H4.07946V24.5336C4.06495 24.4143 4.07408 24.2928 4.10619 24.1779C4.1383 24.063 4.19259 23.9575 4.2652 23.869C4.3378 23.7804 4.42692 23.7109 4.52619 23.6656C4.62545 23.6202 4.7324 23.6 4.8394 23.6065C5.28758 23.6065 5.51491 23.935 5.51491 24.5263V26.4681H6.19691V24.5336C6.183 24.4144 6.19254 24.2932 6.22487 24.1786C6.2572 24.064 6.31152 23.9588 6.384 23.8704C6.45648 23.7819 6.54536 23.7125 6.64434 23.6669C6.74333 23.6213 6.85001 23.6007 6.95686 23.6065C7.41802 23.6065 7.63886 23.935 7.63886 24.5263V26.4681L8.32086 26.4535ZM18.4112 22.9641H17.3005V21.9056H16.6185V22.9641H16.0015V23.6576H16.6315V25.2636C16.6315 26.0739 16.9108 26.5557 17.7097 26.5557C18.0082 26.5569 18.3009 26.4632 18.5541 26.2856L18.3593 25.6359C18.1781 25.7574 17.9725 25.8252 17.7617 25.833C17.4369 25.833 17.3135 25.5994 17.3135 25.249V23.6576H18.4177L18.4112 22.9641ZM24.1725 22.8765C24.0078 22.8711 23.8449 22.9157 23.7008 23.0056C23.5568 23.0955 23.437 23.2275 23.3541 23.3875V22.9641H22.6851V26.4535H23.3606V24.4971C23.3606 23.9204 23.5814 23.5992 24.0101 23.5992C24.1546 23.597 24.2981 23.6268 24.4323 23.6868L24.6402 22.9568C24.4859 22.8948 24.3234 22.8627 24.1595 22.8619L24.1725 22.8765ZM15.4624 23.2415C15.08 22.986 14.6404 22.8593 14.1958 22.8765C13.4099 22.8765 12.8967 23.2999 12.8967 23.9934C12.8967 24.5628 13.2735 24.9132 13.9685 25.0227L14.2932 25.0738C14.6635 25.1322 14.8388 25.2417 14.8388 25.4388C14.8388 25.7089 14.592 25.8622 14.1308 25.8622C13.7599 25.8743 13.3961 25.7457 13.0981 25.4972L12.7733 26.0885C13.1668 26.3973 13.6381 26.556 14.1179 26.5411C15.0142 26.5411 15.5338 26.0666 15.5338 25.4023C15.5338 24.738 15.1246 24.4679 14.4491 24.3584L14.1243 24.3073C13.8321 24.2635 13.5982 24.1978 13.5982 23.9642C13.5982 23.7306 13.8191 23.5554 14.1893 23.5554C14.5315 23.5599 14.8669 23.6629 15.1636 23.8547L15.4624 23.2415ZM33.5549 22.8765C33.3902 22.8711 33.2273 22.9157 33.0832 23.0056C32.9392 23.0955 32.8194 23.2275 32.7365 23.3875V22.9641H32.0675V26.4535H32.743V24.4971C32.743 23.9204 32.9638 23.5992 33.3925 23.5992C33.537 23.597 33.6805 23.6268 33.8147 23.6868L34.0226 22.9568C33.8683 22.8948 33.7058 22.8627 33.5419 22.8619L33.5549 22.8765ZM24.8513 24.7015C24.8432 24.9467 24.8808 25.1911 24.9617 25.4191C25.0425 25.647 25.1648 25.8535 25.3207 26.0253C25.4766 26.1971 25.6627 26.3304 25.867 26.4167C26.0714 26.503 26.2896 26.5404 26.5076 26.5265C26.9131 26.5497 27.3117 26.4013 27.6247 26.1104L27.3 25.4972C27.0665 25.6974 26.7817 25.8074 26.4881 25.8111C26.2384 25.7884 26.0054 25.6609 25.8356 25.4539C25.6658 25.247 25.5715 24.9758 25.5715 24.6942C25.5715 24.4127 25.6658 24.1414 25.8356 23.9345C26.0054 23.7275 26.2384 23.6 26.4881 23.5773C26.7817 23.581 27.0665 23.6911 27.3 23.8912L27.6247 23.278C27.3117 22.9872 26.9131 22.8387 26.5076 22.8619C26.2896 22.848 26.0714 22.8854 25.867 22.9718C25.6627 23.0581 25.4766 23.1914 25.3207 23.3632C25.1648 23.5349 25.0425 23.7414 24.9617 23.9694C24.8808 24.1973 24.8432 24.4417 24.8513 24.6869V24.7015ZM31.1776 24.7015V22.9641H30.5021V23.3875C30.3874 23.2216 30.2392 23.0888 30.0698 22.9999C29.9004 22.9111 29.7147 22.8688 29.5278 22.8765C29.0972 22.8765 28.6842 23.0688 28.3796 23.411C28.0751 23.7533 27.904 24.2175 27.904 24.7015C27.904 25.1855 28.0751 25.6497 28.3796 25.992C28.6842 26.3343 29.0972 26.5265 29.5278 26.5265C29.7147 26.5343 29.9004 26.492 30.0698 26.4031C30.2392 26.3143 30.3874 26.1814 30.5021 26.0155V26.4389H31.1776V24.7015ZM28.664 24.7015C28.6748 24.4961 28.7387 24.2987 28.848 24.1337C28.9574 23.9687 29.1072 23.8431 29.2792 23.7726C29.4512 23.7021 29.6378 23.6896 29.816 23.7368C29.9942 23.7839 30.1562 23.8886 30.2822 24.038C30.4081 24.1873 30.4924 24.3748 30.5247 24.5773C30.5571 24.7798 30.536 24.9886 30.4641 25.1778C30.3922 25.367 30.2727 25.5285 30.1202 25.6423C29.9677 25.7561 29.7889 25.8174 29.6058 25.8184C29.4772 25.8203 29.3497 25.7922 29.2312 25.7359C29.1128 25.6796 29.0059 25.5964 28.9175 25.4915C28.829 25.3866 28.7608 25.2623 28.7172 25.1263C28.6736 24.9904 28.6555 24.8457 28.664 24.7015ZM20.5124 22.8765C20.0818 22.8833 19.6711 23.0821 19.3709 23.4291C19.0706 23.7762 18.9053 24.243 18.9113 24.7271C18.9174 25.2111 19.0942 25.6726 19.403 26.0101C19.7118 26.3475 20.1272 26.5333 20.5579 26.5265C21.0251 26.5535 21.4846 26.3844 21.8472 26.052L21.5224 25.4899C21.266 25.7211 20.9483 25.8495 20.6196 25.8549C20.3963 25.8765 20.1743 25.7993 20.0009 25.6398C19.8274 25.4803 19.7162 25.2511 19.6908 25.0008H21.9966C21.9966 24.9059 21.9966 24.811 21.9966 24.7088C21.9966 23.6138 21.3925 22.8838 20.5222 22.8838L20.5124 22.8765ZM20.5124 23.5554C20.6135 23.553 20.714 23.573 20.8082 23.6142C20.9024 23.6555 20.9885 23.7172 21.0615 23.7958C21.1345 23.8745 21.193 23.9685 21.2336 24.0725C21.2742 24.1766 21.2962 24.2886 21.2984 24.4022H19.6745C19.6863 24.1679 19.7792 23.9481 19.9334 23.7898C20.0876 23.6315 20.2908 23.5474 20.4994 23.5554H20.5124ZM37.4358 24.7088V21.5625H36.7863V23.3875C36.6716 23.2216 36.5234 23.0888 36.354 22.9999C36.1846 22.9111 35.9988 22.8688 35.812 22.8765C35.3813 22.8765 34.9683 23.0688 34.6638 23.411C34.3593 23.7533 34.1882 24.2175 34.1882 24.7015C34.1882 25.1855 34.3593 25.6497 34.6638 25.992C34.9683 26.3343 35.3813 26.5265 35.812 26.5265C35.9988 26.5343 36.1846 26.492 36.354 26.4031C36.5234 26.3143 36.6716 26.1814 36.7863 26.0155V26.4389H37.4358V24.7088ZM38.5628 25.9462C38.605 25.9456 38.6469 25.9543 38.6862 25.9717C38.7235 25.9888 38.7576 26.0136 38.7868 26.0447C38.8154 26.0762 38.8385 26.1133 38.855 26.1542C38.8715 26.1969 38.88 26.2428 38.88 26.2893C38.88 26.3357 38.8715 26.3817 38.855 26.4243C38.8385 26.4652 38.8154 26.5024 38.7868 26.5338C38.7576 26.565 38.7235 26.5897 38.6862 26.6068C38.6473 26.6261 38.6052 26.6361 38.5628 26.636C38.5012 26.6355 38.441 26.6153 38.3893 26.5778C38.3375 26.5404 38.2963 26.4871 38.2705 26.4243C38.2542 26.3816 38.2458 26.3357 38.2458 26.2893C38.2458 26.2428 38.2542 26.1969 38.2705 26.1542C38.287 26.1133 38.3101 26.0762 38.3387 26.0447C38.3679 26.0136 38.402 25.9888 38.4393 25.9717C38.4816 25.9528 38.527 25.9441 38.5725 25.9462H38.5628ZM38.5628 26.563C38.5952 26.5632 38.6273 26.5558 38.6569 26.5411C38.6849 26.5271 38.7102 26.5073 38.7316 26.4827C38.7723 26.4329 38.7948 26.3678 38.7948 26.3002C38.7948 26.2327 38.7723 26.1675 38.7316 26.1177C38.7103 26.0931 38.6849 26.0733 38.6569 26.0593C38.6272 26.0448 38.5952 26.0373 38.5628 26.0374C38.5304 26.0376 38.4984 26.0451 38.4686 26.0593C38.4394 26.0728 38.4129 26.0926 38.3906 26.1177C38.35 26.1675 38.3275 26.2327 38.3275 26.3002C38.3275 26.3678 38.35 26.4329 38.3906 26.4827C38.4129 26.5078 38.4394 26.5276 38.4686 26.5411C38.5013 26.557 38.5368 26.5645 38.5725 26.563H38.5628ZM38.5822 26.1287C38.6126 26.127 38.6424 26.1374 38.6667 26.1579C38.6766 26.1671 38.6845 26.1789 38.6895 26.1922C38.6946 26.2056 38.6968 26.2201 38.6959 26.2345C38.6964 26.2467 38.6946 26.2588 38.6907 26.2701C38.6868 26.2814 38.6808 26.2916 38.6732 26.3002C38.6543 26.3194 38.6303 26.331 38.605 26.3331L38.6992 26.4535H38.6245L38.5368 26.3331H38.5075V26.4535H38.4458V26.1323L38.5822 26.1287ZM38.5108 26.1907V26.2783H38.5822C38.595 26.2826 38.6085 26.2826 38.6212 26.2783C38.6235 26.2732 38.6247 26.2676 38.6247 26.2619C38.6247 26.2562 38.6235 26.2506 38.6212 26.2455C38.6235 26.2404 38.6247 26.2348 38.6247 26.229C38.6247 26.2233 38.6235 26.2177 38.6212 26.2126C38.6085 26.2084 38.595 26.2084 38.5822 26.2126L38.5108 26.1907ZM34.9384 24.7088C34.9492 24.5034 35.0132 24.306 35.1225 24.141C35.2318 23.976 35.3817 23.8504 35.5536 23.7799C35.7256 23.7094 35.9122 23.6969 36.0904 23.7441C36.2686 23.7912 36.4306 23.8959 36.5566 24.0453C36.6825 24.1946 36.7668 24.3821 36.7991 24.5846C36.8315 24.7871 36.8104 24.9959 36.7385 25.1851C36.6666 25.3743 36.5471 25.5358 36.3946 25.6496C36.2421 25.7634 36.0633 25.8247 35.8802 25.8257C35.7516 25.8276 35.6241 25.7995 35.5056 25.7432C35.3872 25.6869 35.2804 25.6037 35.1919 25.4988C35.1034 25.3939 35.0352 25.2696 34.9916 25.1336C34.948 24.9977 34.9299 24.853 34.9384 24.7088ZM12.1303 24.7088V22.9641H11.4548V23.3875C11.3401 23.2216 11.1919 23.0888 11.0225 22.9999C10.8531 22.9111 10.6673 22.8688 10.4805 22.8765C10.0498 22.8765 9.63685 23.0688 9.33233 23.411C9.0278 23.7533 8.85672 24.2175 8.85672 24.7015C8.85672 25.1855 9.0278 25.6497 9.33233 25.992C9.63685 26.3343 10.0498 26.5265 10.4805 26.5265C10.6673 26.5343 10.8531 26.492 11.0225 26.4031C11.1919 26.3143 11.3401 26.1814 11.4548 26.0155V26.4389H12.1303V24.7088ZM9.61667 24.7088C9.62744 24.5034 9.69142 24.306 9.80074 24.141C9.91005 23.976 10.0599 23.8504 10.2319 23.7799C10.4039 23.7094 10.5904 23.6969 10.7686 23.7441C10.9468 23.7912 11.1089 23.8959 11.2348 24.0453C11.3607 24.1946 11.4451 24.3821 11.4774 24.5846C11.5097 24.7871 11.4886 24.9959 11.4168 25.1851C11.3449 25.3743 11.2253 25.5358 11.0728 25.6496C10.9203 25.7634 10.7415 25.8247 10.5584 25.8257C10.4293 25.8286 10.3011 25.8012 10.1818 25.7454C10.0626 25.6896 9.95503 25.6066 9.86587 25.5016C9.7767 25.3965 9.70793 25.2719 9.66391 25.1354C9.6199 24.9989 9.6016 24.8537 9.61017 24.7088H9.61667Z" fill="white"/>
<path d="M24.9912 11.1295C24.9912 8.43379 23.7659 6.02175 21.8348 4.40055C23.2398 3.38641 24.9745 2.78711 26.8527 2.78711C31.5441 2.78711 35.34 6.52605 35.34 11.1295C35.34 15.7329 31.5441 19.4719 26.8527 19.4719C24.9745 19.4719 23.2398 18.8726 21.8348 17.8584C23.7659 16.2372 24.9912 13.8252 24.9912 11.1295ZM23.6445 14.7565C23.1163 15.8292 22.3603 16.7775 21.4279 17.5378C20.4956 16.7775 19.7396 15.8292 19.2114 14.7565C18.6546 13.6256 18.3654 12.3856 18.3654 11.1295C18.3654 9.87335 18.6546 8.63332 19.2114 7.5024C19.7396 6.42971 20.4956 5.4814 21.4279 4.72118C22.3603 5.4814 23.1163 6.42971 23.6445 7.5024C24.2013 8.63341 24.4912 9.87345 24.4912 11.1295C24.4912 12.3855 24.2013 13.6255 23.6445 14.7565ZM17.8654 11.1295C17.8654 13.8252 19.0907 16.2372 21.0219 17.8584C19.6168 18.8726 17.8821 19.4719 16.0039 19.4719C11.3126 19.4719 7.5166 15.7329 7.5166 11.1295C7.5166 6.52605 11.3126 2.78711 16.0039 2.78711C17.8821 2.78711 19.6168 3.38641 21.0219 4.40055C19.0907 6.02175 17.8654 8.43378 17.8654 11.1295Z" fill="white" stroke="#3D3D3D" stroke-width="0.5"/>
</svg>